<svg width="655" height="735" viewBox="0 0 655 735" fill="none" xmlns="http://www.w3.org/2000/svg">
<path d="M182.894 319.51C177.528 293.949 150.953 278.396 127.483 289.855C92.0912 307.135 59.9779 331.119 38.8689 363.543C8.97008 409.468 -4.31168 464.242 1.23121 518.761C6.7741 573.28 30.8078 624.261 69.3376 663.229C107.867 702.197 158.573 726.806 213.026 732.965C267.479 739.124 322.4 726.463 368.66 697.086C414.921 667.708 449.734 623.384 467.315 571.48C484.895 519.577 478.939 469.068 460.053 417.625C448.666 386.607 426.833 355.241 404.704 329.726C385.487 307.567 351.449 314.941 339.203 341.594C329.727 362.22 338.594 386.666 349.451 406.601C356.189 418.974 360.655 433.154 366.167 448.169C376.743 476.977 377.141 508.537 367.296 537.603C357.451 566.669 337.956 591.49 312.05 607.942C286.144 624.393 255.388 631.483 224.895 628.034C194.401 624.585 166.006 610.804 144.429 588.982C122.853 567.16 109.394 538.611 106.29 508.08C103.186 477.549 110.623 446.876 127.367 421.158C132.787 412.832 137.455 404.936 142.694 398.19C160.78 374.9 188.952 348.368 182.894 319.51Z" fill="#D9D9D9"/>
<path d="M182.894 319.51C177.528 293.949 150.953 278.396 127.483 289.855C92.0912 307.135 59.9779 331.119 38.8689 363.543C8.97008 409.468 -4.31168 464.242 1.23121 518.761C6.7741 573.28 30.8078 624.261 69.3376 663.229C107.867 702.197 158.573 726.806 213.026 732.965C267.479 739.124 322.4 726.463 368.66 697.086C414.921 667.708 449.734 623.384 467.315 571.48C484.895 519.577 478.939 469.068 460.053 417.625C448.666 386.607 426.833 355.241 404.704 329.726C385.487 307.567 351.449 314.941 339.203 341.594C329.727 362.22 338.594 386.666 349.451 406.601C356.189 418.974 360.655 433.154 366.167 448.169C376.743 476.977 377.141 508.537 367.296 537.603C357.451 566.669 337.956 591.49 312.05 607.942C286.144 624.393 255.388 631.483 224.895 628.034C194.401 624.585 166.006 610.804 144.429 588.982C122.853 567.16 109.394 538.611 106.29 508.08C103.186 477.549 110.623 446.876 127.367 421.158C132.787 412.832 137.455 404.936 142.694 398.19C160.78 374.9 188.952 348.368 182.894 319.51Z" fill="#02A9EA"/>
<path d="M468.613 415.981C473.516 441.635 499.804 457.666 523.478 446.634C559.177 429.998 591.719 406.6 613.411 374.563C644.137 329.187 658.408 274.662 653.853 220.051C649.298 165.441 626.191 114.034 588.373 74.3744C550.555 34.7151 500.303 9.19247 445.971 2.04852C391.638 -5.09544 336.497 6.56961 289.712 35.1048C242.928 63.64 207.317 107.327 188.8 158.904C170.283 210.48 175.324 261.088 193.275 312.865C204.099 344.084 225.361 375.841 247.024 401.752C265.837 424.255 300.003 417.498 312.729 391.072C322.577 370.62 314.154 346.018 303.66 325.89C297.147 313.397 292.938 299.138 287.699 284.026C277.646 255.031 277.819 223.469 288.189 194.586C298.558 165.703 318.5 141.239 344.699 125.259C370.899 109.279 401.778 102.747 432.204 106.747C462.63 110.748 490.771 125.041 511.949 147.25C533.128 169.459 546.067 198.247 548.618 228.829C551.169 259.411 543.177 289.945 525.971 315.356C520.401 323.582 515.591 331.392 510.231 338.042C491.726 361 463.078 387.018 468.613 415.981Z" fill="#D9D9D9"/>
<path d="M468.613 415.981C473.516 441.635 499.804 457.666 523.478 446.634C559.177 429.998 591.719 406.6 613.411 374.563C644.137 329.187 658.408 274.662 653.853 220.051C649.298 165.441 626.191 114.034 588.373 74.3744C550.555 34.7151 500.303 9.19247 445.971 2.04852C391.638 -5.09544 336.497 6.56961 289.712 35.1048C242.928 63.64 207.317 107.327 188.8 158.904C170.283 210.48 175.324 261.088 193.275 312.865C204.099 344.084 225.361 375.841 247.024 401.752C265.837 424.255 300.003 417.498 312.729 391.072C322.577 370.62 314.154 346.018 303.66 325.89C297.147 313.397 292.938 299.138 287.699 284.026C277.646 255.031 277.819 223.469 288.189 194.586C298.558 165.703 318.5 141.239 344.699 125.259C370.899 109.279 401.778 102.747 432.204 106.747C462.63 110.748 490.771 125.041 511.949 147.25C533.128 169.459 546.067 198.247 548.618 228.829C551.169 259.411 543.177 289.945 525.971 315.356C520.401 323.582 515.591 331.392 510.231 338.042C491.726 361 463.078 387.018 468.613 415.981Z" fill="#4D20FF"/>
</svg>
