<svg width="575" height="507" viewBox="0 0 575 507" fill="none" xmlns="http://www.w3.org/2000/svg">
<rect x="195" width="186" height="507" rx="12" fill="white"/>
<rect x="389" y="67" width="186" height="373" rx="12" fill="white"/>
<rect x="1" y="67" width="186" height="373" rx="12" fill="white"/>
<g clip-path="url(#clip0_2176_30902)">
<path d="M-1 92.1236C-1 92.1236 338.408 66.9675 454.719 189.822C609.201 352.995 934 230.188 934 230.188V413C934 419.627 928.627 425 922 425H11C4.37261 425 -1 419.627 -1 413V92.1236Z" fill="#B3FAFF" fill-opacity="0.42"/>
<path d="M4 256.187C4 256.187 341.592 230.28 457.281 356.802C610.938 524.846 934 398.373 934 398.373V582.896C934 590.927 926.417 596.769 918.69 594.58C856.659 577.008 619.593 513.106 457.282 514.559C303.471 515.937 79.5085 577.234 19.3494 594.51C11.6141 596.732 4 590.887 4 582.839V256.187Z" fill="#D7C190" fill-opacity="0.34"/>
<path d="M-1 546C-1 546 285.807 278.927 473.47 280.003C655.76 281.049 934 545.999 934 545.999L-1 546Z" fill="#B3FAFF" fill-opacity="0.53"/>
<path d="M-1 546C-1 546 285.807 172.499 473.47 174.005C655.76 175.467 934 545.999 934 545.999L-1 546Z" fill="#925FF0" fill-opacity="0.19"/>
<path d="M-58 546C-58 546 339.543 88.1605 599.661 90.0056C852.332 91.7978 1238 545.999 1238 545.999L-58 546Z" fill="#CAB688" fill-opacity="0.34"/>
<path d="M-1 260.813C-1 260.813 338.408 239.336 454.719 344.221C609.201 483.527 934 378.683 934 378.683V533C934 539.627 928.627 545 922 545H11C4.37261 545 -1 539.627 -1 533V260.813Z" fill="#925FF0" fill-opacity="0.56"/>
</g>
<path d="M104.91 270.152C104.782 270.152 104.718 270.109 104.718 270.024C104.718 269.683 104.824 269.469 105.038 269.384C105.251 269.299 105.528 269.171 105.87 269C106.211 268.872 106.574 268.659 106.958 268.36C108.28 267.507 109.71 266.205 111.246 264.456C112.782 262.749 114.467 260.637 116.302 258.12C117.667 256.243 118.99 254.323 120.27 252.36C121.55 250.397 122.787 248.371 123.982 246.28C123.896 245.427 123.832 244.552 123.79 243.656C123.747 242.717 123.726 241.8 123.726 240.904C123.726 237.448 124.046 234.291 124.686 231.432C125.667 227.336 127.182 224.691 129.23 223.496C129.827 223.112 130.36 222.92 130.83 222.92C132.707 222.92 133.646 224.093 133.646 226.44C133.646 229.853 131.576 235.123 127.438 242.248C127.523 243.144 127.672 244.36 127.886 245.896C128.099 247.389 128.355 249.267 128.654 251.528C128.782 252.296 128.846 253.107 128.846 253.96C128.846 258.355 127.907 262.045 126.03 265.032C127.651 263.88 129.827 260.744 132.558 255.624C133.88 253.149 135.16 250.696 136.398 248.264C137.678 245.789 138.958 243.336 140.238 240.904C141.987 237.661 143.672 234.76 145.294 232.2C146.958 229.64 148.515 227.4 149.966 225.48C151.971 222.92 153.998 220.765 156.046 219.016C158.094 217.267 160.142 215.923 162.19 214.984C163.214 214.472 164.216 214.216 165.198 214.216C166.819 214.216 168.014 214.771 168.782 215.88C169.635 216.989 170.062 218.355 170.062 219.976C170.062 220.445 169.955 221.256 169.742 222.408C169.486 223.731 169.23 224.413 168.974 224.456C168.931 224.413 168.91 224.371 168.91 224.328C168.91 224.072 169.016 223.56 169.23 222.792C169.315 222.451 169.379 222.131 169.422 221.832C169.464 221.533 169.486 221.299 169.486 221.128C169.486 218.269 168.014 216.84 165.07 216.84C163.79 216.84 162.51 217.139 161.23 217.736C159.651 218.461 158.115 219.4 156.622 220.552C154.702 222.131 152.696 224.2 150.606 226.76C148.515 229.32 146.382 232.456 144.206 236.168C142.499 239.155 140.835 242.141 139.214 245.128C137.592 248.115 135.95 251.101 134.286 254.088C129.763 262.28 126.606 266.376 124.814 266.376C124.728 266.376 124.686 266.291 124.686 266.12C124.686 265.736 124.856 265.501 125.198 265.416C125.667 264.691 125.902 263.411 125.902 261.576C125.902 260.637 125.838 259.592 125.71 258.44C125.582 257.288 125.411 256.008 125.198 254.6C124.856 252.68 124.6 251.144 124.43 249.992C124.259 248.84 124.152 248.072 124.11 247.688C121.891 251.229 118.84 255.432 114.958 260.296C109.838 266.867 106.488 270.152 104.91 270.152ZM98.8298 273.672C98.7444 273.672 98.7018 273.565 98.7018 273.352C98.7018 273.011 98.8724 272.179 99.2138 270.856C99.5978 269.576 100.174 267.763 100.942 265.416C101.88 262.515 102.691 259.891 103.374 257.544C104.099 255.197 104.675 253.149 105.102 251.4C106.638 245.512 107.406 240.648 107.406 236.808C107.406 234.803 107.299 232.947 107.086 231.24C106.915 229.491 106.659 227.891 106.318 226.44C104.91 225.544 103.288 225.096 101.454 225.096C97.5284 225.096 94.0298 226.845 90.9578 230.344C88.0138 233.715 86.5418 237.427 86.5418 241.48C86.5418 243.784 87.0111 245.384 87.9498 246.28C89.1871 247.432 90.5738 248.008 92.1098 248.008C93.8591 248.008 95.7151 247.347 97.6778 246.024C98.5311 245.427 99.2991 244.787 99.9818 244.104C100.707 243.379 101.347 242.611 101.902 241.8C102.03 241.629 102.136 241.544 102.222 241.544C102.307 241.544 102.35 241.629 102.35 241.8C102.35 241.885 102.307 242.013 102.222 242.184C101.155 243.933 99.5338 245.533 97.3578 246.984C95.0111 248.605 92.8991 249.416 91.0218 249.416C89.6991 249.416 88.5471 249.075 87.5658 248.392C87.0538 248.051 86.6058 247.667 86.2218 247.24C85.8378 246.771 85.5391 246.259 85.3258 245.704C84.9418 244.595 84.7498 243.379 84.7498 242.056C84.7498 239.667 85.2618 237.32 86.2858 235.016C87.6938 231.944 90.0191 229.384 93.2618 227.336C96.5044 225.245 99.8538 224.2 103.31 224.2C104.163 224.2 104.974 224.264 105.742 224.392C104.547 221.107 102.798 219.251 100.494 218.824C100.28 218.739 100.174 218.632 100.174 218.504C100.174 218.077 100.472 217.864 101.07 217.864C103.544 217.864 105.422 220.125 106.702 224.648C112.462 226.227 115.342 231.176 115.342 239.496C115.342 244.275 114.232 249.352 112.014 254.728C110.947 257.373 108.622 262.109 105.038 268.936C104.995 269.064 104.867 269.128 104.654 269.128C104.312 269.128 104.142 269 104.142 268.744C104.142 268.573 104.312 267.997 104.654 267.016C104.995 266.035 105.486 264.627 106.126 262.792C106.894 260.531 107.576 258.461 108.174 256.584C108.771 254.707 109.283 253.043 109.71 251.592C110.35 249.203 110.819 247.027 111.118 245.064C111.416 243.101 111.566 241.331 111.566 239.752C111.566 233.864 110.158 229.683 107.342 227.208C107.854 229.939 108.11 233.032 108.11 236.488C108.11 239.603 107.918 242.739 107.534 245.896C107.192 249.053 106.638 252.253 105.87 255.496C105.059 259.08 104.099 262.344 102.99 265.288C101.88 268.275 100.6 270.963 99.1498 273.352C99.0218 273.565 98.9151 273.672 98.8298 273.672ZM127.246 240.136C128.867 236.936 130.062 234.163 130.83 231.816C131.64 229.427 132.046 227.507 132.046 226.056C132.046 224.264 131.598 223.368 130.702 223.368C128.184 223.368 126.926 226.909 126.926 233.992C126.926 234.931 126.947 235.912 126.99 236.936C127.075 237.96 127.16 239.027 127.246 240.136ZM149.622 262.216C146.592 262.216 145.078 260.253 145.078 256.328C145.078 255.731 145.099 255.091 145.142 254.408C145.227 253.683 145.355 252.915 145.526 252.104C145.355 251.976 145.184 251.805 145.014 251.592C144.843 251.336 144.672 251.037 144.502 250.696C144.672 250.739 144.843 250.824 145.014 250.952C145.227 251.037 145.483 251.123 145.782 251.208C146.251 249.075 147.531 246.963 149.622 244.872C151.883 242.568 154.016 241.416 156.022 241.416C156.491 241.416 156.726 241.48 156.726 241.608C156.726 241.693 156.427 241.907 155.83 242.248C154.251 243.101 152.779 244.424 151.414 246.216C149.963 248.008 148.918 249.8 148.278 251.592C148.32 251.635 148.342 251.656 148.342 251.656C148.342 251.656 148.363 251.677 148.406 251.72C150.454 251.72 152.587 250.739 154.806 248.776C157.024 246.813 158.134 244.808 158.134 242.76C158.134 242.163 157.963 241.587 157.622 241.032C157.323 240.52 156.854 240.264 156.214 240.264C155.403 240.264 154.443 240.584 153.334 241.224C152.267 241.907 151.67 242.248 151.542 242.248C151.456 242.248 151.414 242.227 151.414 242.184C151.414 241.672 152.16 241.117 153.654 240.52C154.934 240.008 155.936 239.752 156.662 239.752C157.686 239.752 158.496 240.029 159.094 240.584C159.776 241.139 160.118 241.907 160.118 242.888C160.118 245.149 158.646 247.347 155.702 249.48C153.056 251.357 150.496 252.403 148.022 252.616C147.68 253.64 147.51 254.621 147.51 255.56C147.51 259.101 148.79 260.872 151.35 260.872C153.312 260.872 155.36 260.019 157.494 258.312C159.286 256.904 160.779 255.197 161.974 253.192C162.358 252.595 162.678 252.296 162.934 252.296C162.976 252.296 162.998 252.339 162.998 252.424C162.998 252.595 162.827 252.979 162.486 253.576C161.163 255.667 159.307 257.587 156.918 259.336C154.315 261.256 151.883 262.216 149.622 262.216ZM186.772 261.896C185.62 261.896 184.724 261.299 184.084 260.104C183.572 259.123 183.316 257.992 183.316 256.712C183.316 256.072 183.358 255.368 183.444 254.6C183.572 253.789 183.742 252.915 183.956 251.976C181.268 257.949 178.494 260.936 175.636 260.936C173.886 260.936 173.012 259.805 173.012 257.544C173.012 253.917 174.761 250.163 178.26 246.28C181.801 242.312 185.321 240.328 188.82 240.328C190.484 240.328 191.316 241.053 191.316 242.504C191.316 244.296 190.121 246.088 187.732 247.88C186.494 250.952 185.876 254.109 185.876 257.352C185.876 259.784 186.409 261 187.476 261C188.884 261 191.444 258.312 195.156 252.936C195.412 252.595 195.604 252.424 195.732 252.424C195.86 252.424 195.924 252.509 195.924 252.68C195.924 252.893 195.838 253.107 195.668 253.32C191.828 259.037 188.862 261.896 186.772 261.896ZM175.892 258.952C178.58 258.952 181.182 255.965 183.7 249.992C183.358 250.077 183.038 250.163 182.74 250.248C182.484 250.291 182.249 250.312 182.036 250.312C181.865 250.312 181.78 250.248 181.78 250.12C181.78 249.907 182.078 249.693 182.676 249.48C182.889 249.352 183.166 249.203 183.508 249.032C183.849 248.819 184.233 248.584 184.66 248.328C184.745 247.603 185.193 246.664 186.004 245.512C186.814 244.317 187.582 243.72 188.308 243.72C188.564 243.72 188.692 243.912 188.692 244.296C188.692 244.595 188.585 245.064 188.372 245.704C189.054 244.765 189.396 243.848 189.396 242.952C189.396 241.971 188.948 241.48 188.052 241.48C185.918 241.48 183.124 243.571 179.668 247.752C176.212 251.976 174.484 255.219 174.484 257.48C174.484 258.461 174.953 258.952 175.892 258.952ZM197.85 261.832C197.552 261.832 197.168 261.704 196.698 261.448C196.229 261.107 195.994 260.829 195.994 260.616C196.122 260.36 196.229 260.083 196.314 259.784C196.442 259.485 196.592 259.187 196.762 258.888C197.53 257.267 198.234 255.645 198.874 254.024C199.514 252.403 200.048 250.781 200.474 249.16C200.901 247.624 201.114 245.811 201.114 243.72C201.029 244.147 200.752 244.787 200.282 245.64C199.856 246.451 199.28 247.475 198.554 248.712C197.872 249.907 197.253 250.909 196.698 251.72C196.186 252.488 195.76 253.107 195.418 253.576C195.418 253.619 195.376 253.64 195.29 253.64C195.077 253.64 194.97 253.555 194.97 253.384C194.97 253.299 194.992 253.235 195.034 253.192C195.333 252.723 195.632 252.232 195.93 251.72C196.272 251.208 196.634 250.653 197.018 250.056C198.17 248.179 199.088 246.493 199.77 245C200.453 243.507 200.944 242.184 201.242 241.032C201.498 239.923 201.925 239.368 202.522 239.368C203.205 239.368 203.546 240.221 203.546 241.928C203.546 245 202.565 248.776 200.602 253.256C202.906 250.355 204.506 248.435 205.402 247.496C207.834 244.893 209.733 243.592 211.098 243.592C212.464 243.592 213.146 244.488 213.146 246.28C213.146 247.517 212.805 248.605 212.122 249.544C211.312 250.739 210.565 251.336 209.882 251.336C209.754 251.336 209.69 251.251 209.69 251.08C209.69 251.08 209.925 250.547 210.394 249.48C210.864 248.413 211.098 247.496 211.098 246.728C211.098 245.576 210.736 245 210.01 245C209.029 245 207.365 246.301 205.018 248.904C203.141 251.037 201.776 252.851 200.922 254.344C200.88 254.472 200.688 254.984 200.346 255.88C200.005 256.776 199.493 258.099 198.81 259.848C198.725 260.104 198.618 260.403 198.49 260.744C198.405 261.043 198.298 261.363 198.17 261.704C198.085 261.789 197.978 261.832 197.85 261.832ZM219.309 262.216C216.28 262.216 214.765 260.253 214.765 256.328C214.765 255.731 214.787 255.091 214.829 254.408C214.915 253.683 215.043 252.915 215.213 252.104C215.043 251.976 214.872 251.805 214.701 251.592C214.531 251.336 214.36 251.037 214.189 250.696C214.36 250.739 214.531 250.824 214.701 250.952C214.915 251.037 215.171 251.123 215.469 251.208C215.939 249.075 217.219 246.963 219.309 244.872C221.571 242.568 223.704 241.416 225.709 241.416C226.179 241.416 226.413 241.48 226.413 241.608C226.413 241.693 226.115 241.907 225.517 242.248C223.939 243.101 222.467 244.424 221.101 246.216C219.651 248.008 218.605 249.8 217.965 251.592C218.008 251.635 218.029 251.656 218.029 251.656C218.029 251.656 218.051 251.677 218.093 251.72C220.141 251.72 222.275 250.739 224.493 248.776C226.712 246.813 227.821 244.808 227.821 242.76C227.821 242.163 227.651 241.587 227.309 241.032C227.011 240.52 226.541 240.264 225.901 240.264C225.091 240.264 224.131 240.584 223.021 241.224C221.955 241.907 221.357 242.248 221.229 242.248C221.144 242.248 221.101 242.227 221.101 242.184C221.101 241.672 221.848 241.117 223.341 240.52C224.621 240.008 225.624 239.752 226.349 239.752C227.373 239.752 228.184 240.029 228.781 240.584C229.464 241.139 229.805 241.907 229.805 242.888C229.805 245.149 228.333 247.347 225.389 249.48C222.744 251.357 220.184 252.403 217.709 252.616C217.368 253.64 217.197 254.621 217.197 255.56C217.197 259.101 218.477 260.872 221.037 260.872C223 260.872 225.048 260.019 227.181 258.312C228.973 256.904 230.467 255.197 231.661 253.192C232.045 252.595 232.365 252.296 232.621 252.296C232.664 252.296 232.685 252.339 232.685 252.424C232.685 252.595 232.515 252.979 232.173 253.576C230.851 255.667 228.995 257.587 226.605 259.336C224.003 261.256 221.571 262.216 219.309 262.216ZM250.699 264.52C250.529 264.52 250.443 263.901 250.443 262.664C250.443 257.16 251.851 250.696 254.667 243.272C257.313 236.232 260.385 230.344 263.883 225.608C261.323 224.755 258.891 224.328 256.587 224.328C252.022 224.328 248.246 225.779 245.259 228.68C244.449 229.448 244.043 230.237 244.043 231.048C244.043 232.072 244.513 232.968 245.451 233.736C245.75 233.992 246.113 234.269 246.539 234.568C247.009 234.824 247.542 235.08 248.139 235.336C249.121 235.805 249.611 236.083 249.611 236.168C249.611 236.211 249.569 236.232 249.483 236.232C249.227 236.232 248.737 236.104 248.011 235.848C244.427 234.355 242.635 232.541 242.635 230.408C242.635 229.427 243.147 228.445 244.171 227.464C247.158 224.349 251.595 222.792 257.483 222.792C258.763 222.792 260.043 222.877 261.323 223.048C262.646 223.219 263.969 223.475 265.291 223.816C267.297 221.427 268.513 220.232 268.939 220.232C269.11 220.232 269.195 220.296 269.195 220.424C269.11 220.595 269.025 220.701 268.939 220.744C268.257 221.384 267.659 221.96 267.147 222.472C266.635 222.984 266.209 223.475 265.867 223.944C269.238 224.925 270.923 225.779 270.923 226.504L270.859 226.696C270.774 226.867 270.646 227.08 270.475 227.336C270.347 227.549 270.177 227.805 269.963 228.104C269.665 228.659 269.323 229.256 268.939 229.896C268.598 230.493 268.257 231.155 267.915 231.88C261.771 243.315 258.699 252.253 258.699 258.696C258.699 261.341 259.361 262.664 260.683 262.664C263.158 262.664 267.105 258.995 272.523 251.656C274.486 249.011 276.257 246.472 277.835 244.04C279.457 241.608 280.907 239.283 282.187 237.064C282.401 236.723 282.635 236.296 282.891 235.784C283.19 235.272 283.489 234.696 283.787 234.056C283.915 233.843 284.065 233.373 284.235 232.648C284.449 231.88 284.705 230.835 285.003 229.512C285.046 229.341 285.089 229.149 285.131 228.936C285.217 228.68 285.281 228.403 285.323 228.104C285.579 227.421 286.07 227.08 286.795 227.08C287.691 227.08 288.139 227.336 288.139 227.848C288.139 228.317 287.947 229.469 287.563 231.304C287.179 233.139 286.625 235.635 285.899 238.792C284.363 245.192 283.595 249.971 283.595 253.128C283.595 259.229 284.769 262.28 287.115 262.28C289.121 262.28 291.617 259.912 294.603 255.176C294.774 254.92 294.966 254.6 295.179 254.216C295.393 253.832 295.649 253.405 295.947 252.936C296.118 252.637 296.289 252.488 296.459 252.488C296.545 252.488 296.587 252.552 296.587 252.68C296.587 252.765 296.545 252.893 296.459 253.064C292.833 259.72 289.569 263.048 286.667 263.048C282.358 263.048 280.203 259.912 280.203 253.64C280.203 250.013 280.971 245.128 282.507 238.984C280.801 241.757 279.094 244.36 277.387 246.792C275.723 249.224 274.017 251.485 272.267 253.576C266.763 260.445 262.475 263.88 259.403 263.88C256.715 263.88 255.371 261.981 255.371 258.184C255.371 254.557 256.779 249.224 259.595 242.184C260.705 239.368 261.878 236.68 263.115 234.12C264.395 231.56 265.697 229.128 267.019 226.824C266.593 226.611 266.166 226.44 265.739 226.312C265.313 226.141 264.886 225.971 264.459 225.8C262.753 228.189 261.11 230.92 259.531 233.992C257.995 237.021 256.545 240.371 255.179 244.04C252.406 251.848 251.019 258.483 251.019 263.944C251.019 264.328 250.913 264.52 250.699 264.52ZM305.838 270.152C302.681 270.152 300.164 269.128 298.286 267.08C296.409 265.075 295.47 262.408 295.47 259.08C295.47 255.624 296.473 252.573 298.478 249.928C300.74 247.112 303.534 245.704 306.862 245.704C307.844 245.704 308.74 245.981 309.55 246.536C310.446 247.005 310.894 247.731 310.894 248.712C310.894 248.925 310.83 249.075 310.702 249.16C310.574 248.648 310.382 248.243 310.126 247.944C309.7 247.219 308.825 246.856 307.502 246.856C304.516 246.856 302.084 248.371 300.206 251.4C298.542 254.003 297.71 256.883 297.71 260.04C297.71 262.728 298.35 264.904 299.63 266.568C300.996 268.488 303.001 269.448 305.646 269.448C310.681 269.448 315.566 266.056 320.302 259.272C322.777 255.645 324.91 252.083 326.702 248.584C328.494 245.043 329.924 241.544 330.99 238.088C331.289 237.107 331.566 236.125 331.822 235.144C332.121 234.12 332.377 233.053 332.59 231.944C332.676 231.56 332.782 231.069 332.91 230.472C333.038 229.875 333.188 229.235 333.358 228.552C333.7 227.272 334.532 226.632 335.854 226.632C336.622 226.632 337.006 226.931 337.006 227.528C337.006 227.955 336.857 228.829 336.558 230.152C335.961 233.053 335.15 235.955 334.126 238.856C333.102 241.757 331.908 244.659 330.542 247.56H331.566C333.273 247.56 335.108 247.411 337.07 247.112C339.033 246.813 341.166 246.344 343.47 245.704C350.724 243.571 354.35 240.051 354.35 235.144C354.35 232.115 352.942 229.448 350.126 227.144C348.974 226.163 347.694 225.331 346.286 224.648C344.878 223.965 343.364 223.389 341.742 222.92C338.67 222.109 335.449 221.704 332.078 221.704H330.862C330.564 226.184 329.476 231.261 327.598 236.936C326.66 239.581 325.614 242.205 324.462 244.808C323.353 247.368 322.073 249.885 320.622 252.36C317.166 258.504 313.668 262.835 310.126 265.352C308.164 266.803 306.457 267.528 305.006 267.528C304.622 267.528 304.43 267.379 304.43 267.08C304.43 266.824 304.601 266.675 304.942 266.632C305.54 266.547 306.073 266.44 306.542 266.312C307.012 266.184 307.438 266.035 307.822 265.864C309.828 264.883 311.833 263.261 313.838 261C315.844 258.781 317.849 255.923 319.854 252.424C321.433 249.651 322.82 246.856 324.014 244.04C325.252 241.224 326.34 238.387 327.278 235.528C328.046 233.096 328.665 230.749 329.134 228.488C329.604 226.184 329.924 223.944 330.094 221.768C326.212 221.939 322.436 222.621 318.766 223.816C316.633 224.499 314.734 225.331 313.07 226.312C311.449 227.251 310.041 228.339 308.846 229.576C307.225 231.197 306.414 233.011 306.414 235.016C306.414 236.68 306.969 238.195 308.078 239.56C309.06 240.755 310.34 241.651 311.918 242.248C312.174 242.333 312.494 242.44 312.878 242.568C313.305 242.696 313.796 242.824 314.35 242.952C314.606 242.995 314.734 243.101 314.734 243.272C314.734 243.485 314.585 243.549 314.286 243.464H314.158C311.556 243.08 309.188 242.013 307.054 240.264C304.665 238.344 303.47 236.125 303.47 233.608C303.47 231.859 304.217 230.237 305.71 228.744C306.948 227.507 308.505 226.376 310.382 225.352C312.302 224.328 314.564 223.453 317.166 222.728C319.214 222.131 321.326 221.683 323.502 221.384C325.678 221.043 327.897 220.829 330.158 220.744V216.584C330.158 216.285 330.286 216.136 330.542 216.136C330.67 216.136 330.734 216.243 330.734 216.456C330.905 217.736 330.969 219.144 330.926 220.68H333.806C335.556 220.68 337.22 220.765 338.798 220.936C340.377 221.107 341.913 221.341 343.406 221.64C347.161 222.493 350.254 223.752 352.686 225.416C355.929 227.677 357.55 230.429 357.55 233.672C357.55 236.829 355.993 239.667 352.878 242.184C350.489 244.147 347.46 245.683 343.79 246.792C339.524 248.072 334.958 248.648 330.094 248.52C323.097 262.941 315.012 270.152 305.838 270.152ZM370.497 266.952C366.359 266.952 362.924 266.141 360.193 264.52C356.78 262.557 355.073 259.677 355.073 255.88C355.073 252.211 356.46 249.181 359.233 246.792C361.964 244.445 365.143 243.272 368.769 243.272C370.775 243.272 371.777 243.443 371.777 243.784C371.777 243.869 371.031 243.912 369.537 243.912C366.167 243.912 363.223 244.936 360.705 246.984C358.017 249.075 356.673 251.912 356.673 255.496C356.673 258.952 357.911 261.661 360.385 263.624C362.775 265.544 365.676 266.504 369.089 266.504C372.247 266.504 375.703 265.736 379.457 264.2C385.815 261.64 388.993 257.651 388.993 252.232C388.993 250.696 388.631 249.245 387.905 247.88C387.18 246.472 386.071 245.235 384.577 244.168C383.255 243.187 381.911 242.312 380.545 241.544C379.223 240.733 377.879 239.859 376.513 238.92C375.063 237.939 373.975 236.829 373.249 235.592C372.524 234.355 372.161 233.075 372.161 231.752C372.161 229.875 372.865 228.168 374.273 226.632C372.993 226.76 371.905 227.379 371.009 228.488C370.156 229.683 369.729 230.92 369.729 232.2C369.729 233.608 370.071 234.952 370.753 236.232C371.436 237.512 372.481 238.685 373.889 239.752C375.127 240.691 376.385 241.608 377.665 242.504C378.988 243.357 380.289 244.211 381.569 245.064C384.3 247.283 385.665 249.949 385.665 253.064C385.665 256.051 384.129 258.867 381.057 261.512C379.607 262.792 378.113 263.731 376.577 264.328C375.041 264.968 373.527 265.288 372.033 265.288C371.82 265.288 371.713 265.224 371.713 265.096C371.713 264.84 371.863 264.712 372.161 264.712C372.887 264.627 373.527 264.52 374.081 264.392C374.636 264.264 375.127 264.136 375.553 264.008C377.857 263.069 379.884 261.64 381.633 259.72C383.553 257.544 384.513 255.325 384.513 253.064C384.513 251.571 384.172 250.163 383.489 248.84C382.849 247.517 381.847 246.344 380.481 245.32C379.287 244.381 378.049 243.507 376.769 242.696C375.489 241.885 374.231 241.011 372.993 240.072C371.585 239.048 370.54 237.875 369.857 236.552C369.217 235.187 368.897 233.757 368.897 232.264C368.897 230.685 369.431 229.299 370.497 228.104C371.052 227.507 371.671 227.059 372.353 226.76C373.036 226.419 373.783 226.248 374.593 226.248H374.657C377.687 223.347 381.719 221.896 386.753 221.896C391.276 221.896 394.369 222.941 396.033 225.032C396.545 225.672 396.801 226.355 396.801 227.08C396.801 228.488 395.905 229.512 394.113 230.152C392.833 230.664 391.361 230.92 389.697 230.92C388.887 230.92 388.033 230.877 387.137 230.792C386.241 230.664 385.303 230.472 384.321 230.216C383.169 230.003 382.188 229.725 381.377 229.384C380.567 229 379.884 228.616 379.329 228.232C379.244 228.147 379.201 228.083 379.201 228.04C379.201 227.912 379.265 227.848 379.393 227.848C379.479 227.848 379.543 227.869 379.585 227.912C381.975 229.448 385.281 230.216 389.505 230.216C390.231 230.216 390.892 230.152 391.489 230.024C392.087 229.896 392.641 229.747 393.153 229.576C394.561 228.936 395.265 228.083 395.265 227.016C395.265 225.48 394.156 224.328 391.937 223.56C390.273 222.963 388.545 222.664 386.753 222.664C381.463 222.664 377.815 224.413 375.809 227.912C375.212 228.979 374.913 230.088 374.913 231.24C374.913 233.843 376.364 236.125 379.265 238.088C380.588 238.941 381.911 239.795 383.233 240.648C384.599 241.501 385.943 242.355 387.265 243.208C390.167 245.597 391.617 248.52 391.617 251.976C391.617 256.669 389.185 260.467 384.321 263.368C380.183 265.757 375.575 266.952 370.497 266.952ZM443.252 269.64C440.265 269.64 435.849 268.552 430.004 266.376C427.785 265.523 425.566 264.648 423.348 263.752C421.172 262.899 418.953 262.067 416.692 261.256C412.425 265.907 407.668 268.232 402.42 268.232C400.713 268.232 398.985 267.763 397.236 266.824C395.316 265.715 394.356 264.371 394.356 262.792C394.356 260.744 395.38 259.208 397.428 258.184C399.049 257.416 400.969 257.032 403.188 257.032C405.022 257.032 407.412 257.48 410.356 258.376C412.02 256.499 413.534 254.259 414.9 251.656C416.265 249.053 417.481 246.109 418.548 242.824C420.51 236.979 421.705 231.197 422.132 225.48C420.766 225.267 419.486 225.139 418.292 225.096C417.097 225.011 416.009 224.968 415.028 224.968C413.876 224.968 412.83 225.011 411.892 225.096C410.996 225.181 410.164 225.331 409.396 225.544C405.428 226.611 403.444 229.064 403.444 232.904C403.444 236.403 405.449 239.56 409.46 242.376C409.673 242.461 409.78 242.568 409.78 242.696C409.78 242.824 409.694 242.888 409.524 242.888C409.438 242.888 409.31 242.845 409.14 242.76C403.764 239.688 401.076 236.019 401.076 231.752C401.076 229.363 402.078 227.443 404.084 225.992C405.705 224.755 407.817 224.008 410.42 223.752C411.529 223.624 412.681 223.56 413.876 223.56C415.07 223.56 416.35 223.624 417.716 223.752C419.081 223.837 420.574 223.987 422.196 224.2C422.238 223.645 422.26 223.112 422.26 222.6C422.302 222.045 422.324 221.512 422.324 221C422.324 220.787 422.324 220.552 422.324 220.296C422.324 219.997 422.302 219.635 422.26 219.208C422.217 218.824 422.196 218.483 422.196 218.184C422.196 217.885 422.196 217.651 422.196 217.48C422.196 217.181 422.281 217.032 422.452 217.032C422.494 217.032 422.558 217.139 422.644 217.352C422.985 219.229 423.113 221.555 423.028 224.328C424.35 224.499 425.908 224.755 427.7 225.096C429.492 225.395 431.518 225.779 433.78 226.248C437.236 221.768 440.756 219.528 444.34 219.528C447.454 219.528 449.012 220.829 449.012 223.432C449.012 223.901 448.905 224.136 448.692 224.136C448.521 224.136 448.436 223.944 448.436 223.56C448.436 222.536 448.03 221.811 447.22 221.384C446.537 220.957 445.684 220.744 444.66 220.744C441.972 220.744 439.241 222.728 436.468 226.696C440.308 227.464 443.529 228.04 446.132 228.424C448.734 228.765 450.761 228.936 452.212 228.936C453.876 228.936 455.305 228.744 456.5 228.36C458.292 227.72 459.188 226.781 459.188 225.544C459.188 225.16 459.102 224.861 458.932 224.648C458.804 224.307 458.74 224.115 458.74 224.072C458.74 223.944 458.804 223.88 458.932 223.88C459.23 223.88 459.486 224.243 459.7 224.968C459.956 225.651 460.084 226.205 460.084 226.632C460.084 229.576 457.716 231.048 452.98 231.048C451.529 231.048 449.353 230.792 446.452 230.28C443.55 229.768 439.924 229.043 435.572 228.104C435.06 228.957 434.142 230.685 432.82 233.288C431.497 235.848 429.769 239.304 427.636 243.656C428.446 243.4 429.492 243.208 430.772 243.08C432.052 242.909 433.566 242.824 435.316 242.824C440.052 242.824 443.849 243.315 446.708 244.296C446.921 244.381 447.028 244.467 447.028 244.552C447.028 244.68 446.942 244.744 446.772 244.744C446.345 244.744 445.577 244.68 444.468 244.552C443.956 244.509 443.508 244.488 443.124 244.488C442.74 244.445 442.398 244.424 442.1 244.424C440.436 244.424 438.836 244.488 437.3 244.616C435.764 244.701 434.27 244.893 432.82 245.192C428.169 246.003 425.844 247.411 425.844 249.416C425.844 249.715 425.95 250.12 426.164 250.632V250.76C425.694 250.76 425.268 250.248 424.884 249.224C422.281 253.96 419.806 257.693 417.46 260.424C419.593 261.064 421.726 261.704 423.86 262.344C425.993 262.984 428.105 263.603 430.196 264.2C432.798 264.925 435.166 265.48 437.3 265.864C439.476 266.248 441.438 266.44 443.188 266.44C445.534 266.44 447.497 266.077 449.076 265.352C451.252 264.371 452.34 262.92 452.34 261C452.34 259.549 451.7 257.779 450.42 255.688C449.822 254.664 449.353 253.896 449.012 253.384C448.713 252.872 448.564 252.616 448.564 252.616C448.564 252.573 448.585 252.552 448.628 252.552C448.798 252.552 449.033 252.701 449.332 253C451.977 255.176 453.3 257.779 453.3 260.808C453.3 263.496 452.276 265.672 450.228 267.336C448.308 268.872 445.982 269.64 443.252 269.64ZM414.26 259.592C416.222 257.629 418.718 253.619 421.748 247.56C422.601 245.853 423.433 244.147 424.244 242.44C425.097 240.691 425.972 238.963 426.868 237.256C427.849 235.336 428.852 233.565 429.876 231.944C430.9 230.28 431.881 228.808 432.82 227.528C430.857 227.059 429.044 226.675 427.38 226.376C425.758 226.077 424.286 225.821 422.964 225.608C422.793 228.467 422.43 231.368 421.876 234.312C421.321 237.213 420.574 240.136 419.636 243.08C417.545 249.608 414.836 254.835 411.508 258.76L414.26 259.592ZM401.78 266.952C402.761 266.952 403.806 266.781 404.916 266.44C406.068 266.099 407.262 265.565 408.5 264.84C410.932 263.475 412.724 261.981 413.876 260.36C413.577 260.275 413.193 260.147 412.724 259.976C412.254 259.805 411.657 259.613 410.932 259.4C407.945 262.685 404.83 264.328 401.588 264.328C400.777 264.328 400.372 264.179 400.372 263.88C400.372 263.667 400.734 263.56 401.46 263.56C404.233 263.56 407.006 262.067 409.78 259.08C407.348 258.312 405.193 257.928 403.316 257.928C401.524 257.928 399.924 258.248 398.516 258.888C396.724 259.699 395.828 260.915 395.828 262.536C395.828 263.987 396.51 265.096 397.876 265.864C399.07 266.589 400.372 266.952 401.78 266.952ZM503.646 273.16C502.324 273.16 500.852 272.947 499.23 272.52C497.609 272.136 495.817 271.539 493.854 270.728C492.66 270.216 491.188 269.512 489.438 268.616C487.689 267.763 485.684 266.717 483.422 265.48C481.161 264.243 479.241 263.219 477.662 262.408C476.126 261.597 474.91 261 474.014 260.616C472.692 262.109 471.433 263.389 470.238 264.456C469.086 265.523 468.02 266.376 467.038 267.016C464.265 268.765 461.257 269.64 458.014 269.64C456.265 269.64 454.537 269.043 452.83 267.848C451.038 266.568 450.142 265.096 450.142 263.432C450.142 261.085 451.316 259.315 453.662 258.12C455.54 257.139 457.758 256.648 460.318 256.648C461.556 256.648 463.006 256.797 464.67 257.096C466.334 257.395 468.19 257.864 470.238 258.504C471.561 256.712 472.948 254.451 474.398 251.72C474.185 251.763 473.95 251.784 473.694 251.784C473.481 251.784 473.246 251.784 472.99 251.784C464.03 251.784 459.55 248.605 459.55 242.248C459.55 238.877 461.364 236.232 464.99 234.312C465.118 234.184 465.268 234.12 465.438 234.12C465.566 234.12 465.63 234.184 465.63 234.312C465.63 234.397 465.609 234.461 465.566 234.504C462.878 235.443 461.534 237.405 461.534 240.392C461.534 243.635 463.028 246.216 466.014 248.136C468.574 249.8 471.54 250.653 474.91 250.696C475.892 248.947 477.044 246.579 478.366 243.592C480.03 240.051 481.46 237.128 482.654 234.824C483.892 232.477 484.873 230.771 485.598 229.704C489.31 224.157 493.278 221.384 497.502 221.384C497.972 221.384 498.206 221.448 498.206 221.576C498.206 221.704 497.972 221.768 497.502 221.768C493.449 221.768 489.588 224.627 485.918 230.344C484.724 232.264 482.398 236.915 478.942 244.296C478.345 245.576 477.79 246.749 477.278 247.816C476.766 248.883 476.276 249.843 475.806 250.696C476.489 250.653 477.172 250.611 477.854 250.568C478.58 250.525 479.284 250.44 479.966 250.312C480.18 250.099 480.436 249.672 480.734 249.032C481.033 248.392 481.396 247.539 481.822 246.472C482.078 245.789 482.334 245.107 482.59 244.424C482.846 243.741 483.124 243.059 483.422 242.376C489.396 228.723 496.052 221.896 503.39 221.896C504.884 221.896 506.078 222.408 506.974 223.432C507.87 224.456 508.318 225.757 508.318 227.336C508.318 233.693 501.364 240.435 487.454 247.56C486.772 247.859 486.089 248.2 485.406 248.584C484.724 248.925 484.02 249.267 483.294 249.608C482.996 249.693 482.633 249.843 482.206 250.056C481.822 250.269 481.353 250.504 480.798 250.76C480.798 250.76 480.649 250.995 480.35 251.464C480.094 251.891 479.689 252.531 479.134 253.384C478.452 254.451 477.748 255.539 477.022 256.648C476.297 257.715 475.55 258.76 474.782 259.784C477.556 260.851 480.308 261.917 483.038 262.984C485.769 264.051 488.5 265.117 491.23 266.184C494.686 267.507 497.801 268.467 500.574 269.064C503.39 269.704 505.844 270.024 507.934 270.024C512.116 270.024 514.206 268.808 514.206 266.376C514.206 264.797 513.481 262.899 512.03 260.68C512.372 260.851 512.692 261.107 512.99 261.448C513.332 261.832 513.652 262.323 513.95 262.92C514.292 263.475 514.526 264.008 514.654 264.52C514.825 265.032 514.91 265.48 514.91 265.864C514.91 268.083 513.545 269.917 510.814 271.368C508.553 272.563 506.164 273.16 503.646 273.16ZM481.31 249.864C483.316 249.139 485.62 247.987 488.222 246.408C490.825 244.787 493.726 242.675 496.926 240.072C504.052 234.312 507.614 229.768 507.614 226.44C507.614 225.501 507.23 224.819 506.462 224.392C505.737 223.965 504.862 223.752 503.838 223.752C501.492 223.752 498.825 225.267 495.838 228.296C492.852 231.325 489.588 235.891 486.046 241.992C485.492 242.931 484.83 244.061 484.062 245.384C483.294 246.707 482.377 248.2 481.31 249.864ZM473.822 259.592C474.206 259.208 474.868 258.312 475.806 256.904C476.745 255.496 477.982 253.597 479.518 251.208C478.793 251.293 478.068 251.379 477.342 251.464C476.66 251.549 475.977 251.613 475.294 251.656C474.526 253.064 473.78 254.344 473.054 255.496C472.329 256.648 471.625 257.715 470.942 258.696C471.582 258.909 472.137 259.101 472.606 259.272C473.118 259.4 473.524 259.507 473.822 259.592ZM458.654 267.976C459.764 267.976 460.98 267.763 462.302 267.336C463.625 266.952 465.076 266.355 466.654 265.544C468.276 264.733 469.62 263.901 470.686 263.048C471.796 262.195 472.67 261.32 473.31 260.424C472.713 260.04 471.774 259.635 470.494 259.208C466.996 263.731 463.134 265.992 458.91 265.992C458.27 265.992 457.95 265.907 457.95 265.736C457.95 265.608 458.249 265.544 458.846 265.544C462.814 265.544 466.484 263.368 469.854 259.016C465.886 257.736 462.729 257.096 460.382 257.096C458.334 257.096 456.436 257.48 454.686 258.248C452.51 259.272 451.422 260.701 451.422 262.536C451.422 264.115 452.254 265.459 453.918 266.568C455.241 267.507 456.82 267.976 458.654 267.976Z" fill="#1F1F1F"/>
<defs>
<clipPath id="clip0_2176_30902">
<path d="M0 67H574V428C574 434.627 568.627 440 562 440H12C5.37258 440 0 434.627 0 428V67Z" fill="white"/>
</clipPath>
</defs>
</svg>
