<svg width="72" height="72" viewBox="0 0 72 72" fill="none" xmlns="http://www.w3.org/2000/svg">
<path d="M32.8485 30.667L29.6968 36.2428L32.8485 41.8185H39.1513L42.3028 36.2428L39.1513 30.667H32.8485ZM38.593 40.8304H33.4068L30.8139 36.2428L33.4068 31.6551H38.593L41.1858 36.2428L38.593 40.8304Z" fill="#2F2161"/>
<path d="M34.3018 33.0908L32.606 36.0014L34.3018 38.909H37.6955L39.3938 36.0014L37.6955 33.0908H34.3018Z" fill="#2F2161"/>
<path d="M49.4058 39.4197L51.5152 35.7573L49.4058 32.0948H45.466L43.9773 29.5098L45.9491 26.0863L43.8397 22.4238H39.6215L37.7303 25.7074H34.2697L32.3786 22.4238H28.1603L26.051 26.0863L28.0227 29.5098L26.534 32.0948H22.5942L20.4849 35.7573L22.5942 39.4197H26.534L28.0227 42.0046L26.051 45.4281L28.1604 49.0905H32.3786L34.2698 45.8069H37.7304L39.6215 49.0905H43.8398L45.9491 45.4281L43.9774 42.0046L45.466 39.4197H49.4058ZM39.6215 41.7656L37.5725 45.3232H34.4275L32.3786 41.7656H28.4421L26.9517 39.1778L28.9218 35.7573L26.9517 32.3367L28.4421 29.7487H32.3786L34.4275 26.1911H37.5725L39.6214 29.7487H43.5579L45.0482 32.3367L43.0782 35.7573L45.0482 39.1779L43.5579 41.7656H39.6215ZM50.4008 35.7573L48.8488 38.4523H45.7445L44.1926 35.7573L45.7445 33.0623H48.8488L50.4008 35.7573ZM40.1784 23.3913H43.2827L44.8347 26.0863L43.2827 28.7813H40.1784L38.6265 26.0863L40.1784 23.3913ZM28.7173 23.3913H31.8216L33.3735 26.0863L31.8216 28.7813H28.7173L27.1654 26.0863L28.7173 23.3913ZM23.1512 38.4523L21.5993 35.7573L23.1512 33.0623H26.2555L27.8074 35.7573L26.2555 38.4523H23.1512ZM31.8216 48.123H28.7173L27.1654 45.4281L28.7173 42.7331H31.8216L33.3735 45.4281L31.8216 48.123ZM43.2827 48.123H40.1784L38.6265 45.4281L40.1784 42.7331H43.2827L44.8347 45.4281L43.2827 48.123Z" fill="#2F2161"/>
</svg>
