<svg width="319" height="360" viewBox="0 0 319 360" fill="none" xmlns="http://www.w3.org/2000/svg">
<path d="M316.999 180C316.999 278.325 238.047 358 140.695 358C43.3425 358 -35.6094 278.325 -35.6094 180C-35.6094 81.6754 43.3425 2 140.695 2C238.047 2 316.999 81.6754 316.999 180Z" stroke="#BEBEBE" stroke-opacity="0.1" stroke-width="4"/>
<path d="M254.292 180.171C254.292 243.437 203.493 294.692 140.868 294.692C78.2444 294.692 27.4453 243.437 27.4453 180.171C27.4453 116.905 78.2444 65.6504 140.868 65.6504C203.493 65.6504 254.292 116.905 254.292 180.171Z" stroke="#BEBEBE" stroke-opacity="0.1" stroke-width="4"/>
<path d="M273.945 180C273.945 254.322 214.267 314.54 140.691 314.54C67.115 314.54 7.4375 254.322 7.4375 180C7.4375 105.678 67.115 45.46 140.691 45.46C214.267 45.46 273.945 105.678 273.945 180Z" stroke="#BEBEBE" stroke-opacity="0.1" stroke-width="4"/>
<path d="M293.607 180.171C293.607 265.361 225.203 334.388 140.862 334.388C56.5213 334.388 -11.8828 265.361 -11.8828 180.171C-11.8828 94.9819 56.5213 25.9546 140.862 25.9546C225.203 25.9546 293.607 94.9819 293.607 180.171Z" stroke="#BEBEBE" stroke-opacity="0.1" stroke-width="4"/>
<ellipse cx="73.0654" cy="319.448" rx="4.23727" ry="4.27757" fill="#3894FF"/>
<ellipse cx="51.7138" cy="106.939" rx="4.23727" ry="4.27757" fill="#1AB44F"/>
<ellipse cx="8.32321" cy="203.783" rx="4.23727" ry="4.27757" fill="#FF7B1C"/>
</svg>
