<svg width="74" height="146" viewBox="0 0 74 146" fill="none" xmlns="http://www.w3.org/2000/svg">
<path id="Star 35" d="M-7.886 7.21227C-6.37196 -1.6601 6.37195 -1.66009 7.886 7.21227L9.23964 15.1447C10.3717 21.7788 18.6908 24.1355 23.1342 19.0808L28.6095 12.8521C34.5965 6.04133 45.5064 12.8734 41.9932 21.2333L39.9612 26.0686C37.2699 32.4728 43.4592 39.0282 50.0073 36.709L55.288 34.8387C63.9494 31.7711 70.1043 43.338 62.7212 48.8078L60.6398 50.3497C54.8977 54.6038 57.1898 63.6791 64.2633 64.6964L66.941 65.0815C76.0892 66.3972 76.0892 79.6028 66.941 80.9185L64.2633 81.3036C57.1898 82.3209 54.8977 91.3962 60.6398 95.6503L62.7212 97.1922C70.1043 102.662 63.9494 114.229 55.288 111.161L50.0073 109.291C43.4592 106.972 37.2699 113.527 39.9612 119.931L41.9932 124.767C45.5064 133.127 34.5965 139.959 28.6095 133.148L23.1342 126.919C18.6908 121.865 10.3717 124.221 9.23964 130.855L7.886 138.788C6.37195 147.66 -6.37196 147.66 -7.886 138.788L-9.23964 130.855C-10.3717 124.221 -18.6908 121.865 -23.1342 126.919L-28.6095 133.148C-34.5965 139.959 -45.5064 133.127 -41.9932 124.767L-39.9612 119.931C-37.2699 113.527 -43.4592 106.972 -50.0073 109.291L-55.288 111.161C-63.9494 114.229 -70.1043 102.662 -62.7212 97.1922L-60.6398 95.6503C-54.8977 91.3962 -57.1898 82.3209 -64.2633 81.3036L-66.941 80.9185C-76.0892 79.6028 -76.0892 66.3972 -66.941 65.0815L-64.2633 64.6964C-57.1898 63.6791 -54.8977 54.6038 -60.6398 50.3497L-62.7212 48.8078C-70.1043 43.338 -63.9494 31.7711 -55.288 34.8387L-50.0073 36.709C-43.4591 39.0282 -37.2699 32.4728 -39.9612 26.0686L-41.9932 21.2333C-45.5064 12.8734 -34.5965 6.04134 -28.6095 12.8521L-23.1342 19.0808C-18.6908 24.1355 -10.3717 21.7788 -9.23964 15.1447L-7.886 7.21227Z" fill="#B3FAFF"/>
</svg>
