<svg width="1280" height="125" viewBox="0 0 1280 125" fill="none" xmlns="http://www.w3.org/2000/svg">
<g clip-path="url(#clip0_2195_9125)">
<rect width="1284.67" height="60.7747" transform="translate(-2.85156 64.0996) rotate(-2.81898)" fill="#7B61FF"/>
<path d="M1.33826 104.943L0.236618 82.57L14.8429 81.8508L15.005 85.1428L4.48976 85.6606L4.79193 91.7972L14.3483 91.3266L14.5057 94.5227L4.9493 94.9933L5.26721 101.449L15.7825 100.932L15.9446 104.224L1.33826 104.943ZM19.72 104.038L18.5869 81.0257L22.6779 80.8243L23.811 103.836L19.72 104.038ZM35.7128 103.635C34.1147 103.713 32.681 103.442 31.4116 102.821C30.1422 102.2 29.1254 101.289 28.3614 100.088C27.5974 98.8868 27.1756 97.4765 27.0958 95.8572C27.0151 94.2165 27.2841 92.7401 27.903 91.4281C28.5432 90.115 29.4532 89.077 30.6331 88.3141C31.8333 87.5288 33.2644 87.0952 34.9264 87.0134C36.4818 86.9368 37.8729 87.21 39.0997 87.8331C40.3265 88.4562 41.2996 89.3481 42.0189 90.5088C42.7584 91.6471 43.1639 92.9407 43.2352 94.3896C43.2467 94.624 43.2481 94.8696 43.2394 95.1263C43.252 95.382 43.2545 95.6489 43.2468 95.9269L31.1974 96.5203C31.3435 97.7519 31.8174 98.7004 32.6191 99.3658C33.4421 100.03 34.4076 100.335 35.5156 100.28C36.3466 100.24 37.0301 100.024 37.5663 99.6348C38.1227 99.2229 38.5247 98.7119 38.7724 98.1016L42.9273 97.897C42.6783 98.9132 42.2227 99.8541 41.5605 100.72C40.9185 101.563 40.0977 102.244 39.098 102.763C38.1196 103.281 36.9912 103.572 35.7128 103.635ZM35.09 90.3373C34.0886 90.3866 33.2185 90.7178 32.4798 91.3309C31.74 91.9227 31.2919 92.7991 31.1354 93.9602L39.0299 93.5715C38.9145 92.5306 38.4901 91.7185 37.7565 91.1352C37.0229 90.5519 36.1341 90.2859 35.09 90.3373ZM50.7516 102.51L44.1541 86.9434L48.4369 86.7326L53.0542 98.5197L56.4912 86.336L60.774 86.1251L55.7056 102.266L50.7516 102.51ZM68.6516 102.013C67.2879 102.08 66.1588 101.922 65.2642 101.539C64.3686 101.134 63.6898 100.581 63.228 99.877C62.7662 99.1736 62.5138 98.385 62.4708 97.5114C62.3984 96.0412 62.9149 94.8196 64.0204 93.8468C65.1259 92.8739 66.8292 92.3308 69.1305 92.2175L73.1576 92.0192L73.1387 91.6356C73.0852 90.549 72.7369 89.7651 72.0938 89.2842C71.4507 88.8032 70.671 88.5853 69.7548 88.6304C68.9238 88.6713 68.2093 88.9094 67.6113 89.3447C67.0123 89.7587 66.6571 90.3529 66.5457 91.1273L62.5505 91.324C62.6004 90.1681 62.9347 89.1478 63.5532 88.263C64.1931 87.3771 65.0347 86.6842 66.078 86.1843C67.1203 85.6631 68.302 85.3699 69.6231 85.3049C71.8817 85.1937 73.6887 85.6707 75.044 86.736C76.3994 87.8013 77.128 89.3674 77.2297 91.4342L77.7097 101.182L74.226 101.354L73.7165 98.8159C73.2897 99.6913 72.6638 100.427 71.8388 101.023C71.0351 101.618 69.9727 101.948 68.6516 102.013ZM69.4211 98.7711C70.593 98.7134 71.4797 98.2853 72.0812 97.4867C72.7039 96.6871 73.0727 95.7185 73.1876 94.5808L69.7038 94.7523C68.6171 94.8059 67.8494 95.0466 67.4005 95.4745C66.9507 95.8811 66.7399 96.3721 66.7682 96.9474C66.7986 97.5653 67.0566 98.0332 67.5422 98.351C68.0277 98.6688 68.654 98.8089 69.4211 98.7711ZM88.4587 100.653C86.7967 100.735 85.4451 100.396 84.4037 99.6353C83.3624 98.8749 82.7909 97.4613 82.6891 95.3945L82.3492 88.4909L79.6325 88.6246L79.4641 85.2048L82.1808 85.071L82.4509 80.7966L86.0625 80.6187L86.2718 84.8696L90.5546 84.6587L90.723 88.0785L86.4402 88.2894L86.7817 95.225C86.8195 95.9921 87.0055 96.5169 87.3398 96.7995C87.6944 97.0597 88.2765 97.1699 89.0862 97.13L91.0678 97.0324L91.2393 100.516L88.4587 100.653ZM102.164 100.363C100.565 100.441 99.1317 100.17 97.8623 99.5493C96.5929 98.9283 95.5762 98.0172 94.8122 96.816C94.0482 95.6148 93.6263 94.2045 93.5466 92.5851C93.4658 90.9444 93.7348 89.4681 94.3537 88.1561C94.9939 86.843 95.904 85.805 97.0839 85.042C98.2841 84.2567 99.7151 83.8231 101.377 83.7413C102.933 83.6647 104.324 83.938 105.55 84.5611C106.777 85.1841 107.75 86.076 108.47 87.2367C109.209 88.3751 109.615 89.6687 109.686 91.1176C109.697 91.352 109.699 91.5975 109.69 91.8543C109.703 92.11 109.705 92.3768 109.698 92.6549L97.6482 93.2482C97.7942 94.4798 98.2681 95.4284 99.0698 96.0937C99.8928 96.7581 100.858 97.0629 101.966 97.0084C102.797 96.9675 103.481 96.7523 104.017 96.3628C104.573 95.9509 104.975 95.4398 105.223 94.8296L109.378 94.625C109.129 95.6411 108.673 96.582 108.011 97.4476C107.369 98.2909 106.548 98.9721 105.549 99.4912C104.57 100.009 103.442 100.3 102.164 100.363ZM101.541 87.0653C100.539 87.1146 99.6692 87.4458 98.9305 88.0589C98.1907 88.6506 97.7426 89.5271 97.5862 90.6882L105.481 90.2994C105.365 89.2585 104.941 88.4464 104.207 87.8631C103.474 87.2798 102.585 87.0139 101.541 87.0653ZM127.04 98.7533L126.649 90.795L118.428 76.7503L123.062 76.5221L128.525 86.6016L132.938 76.0358L137.509 75.8107L130.74 90.5935L131.132 98.5519L127.04 98.7533ZM145.921 98.2081C144.387 98.2837 142.984 98.0003 141.714 97.358C140.465 96.7147 139.447 95.7929 138.662 94.5927C137.897 93.3702 137.474 91.9386 137.393 90.2979C137.313 88.6573 137.604 87.2012 138.268 85.9297C138.93 84.6368 139.851 83.609 141.031 82.846C142.233 82.082 143.6 81.6622 145.134 81.5867C146.647 81.5122 148.028 81.7966 149.277 82.44C150.548 83.0823 151.566 84.0147 152.331 85.2372C153.116 86.4374 153.549 87.8578 153.63 89.4985C153.711 91.1391 153.42 92.6059 152.757 93.8987C152.115 95.1692 151.193 96.1864 149.992 96.9504C148.791 97.7144 147.434 98.1336 145.921 98.2081ZM145.746 94.6604C146.811 94.608 147.719 94.1681 148.468 93.3409C149.217 92.4924 149.552 91.2798 149.475 89.7031C149.397 88.1263 148.945 86.9631 148.118 86.2136C147.289 85.4427 146.353 85.083 145.309 85.1344C144.222 85.1879 143.305 85.6389 142.556 86.4874C141.828 87.3136 141.503 88.515 141.58 90.0918C141.658 91.6685 142.1 92.8429 142.907 93.6148C143.734 94.3643 144.681 94.7129 145.746 94.6604ZM163.642 97.3356C161.66 97.4331 160.095 96.8908 158.948 95.7084C157.822 94.5251 157.2 92.7401 157.082 90.3537L156.642 81.4045L160.701 81.2047L161.122 89.7703C161.19 91.134 161.518 92.1644 162.108 92.8616C162.697 93.5588 163.589 93.878 164.782 93.8192C165.911 93.7636 166.818 93.3131 167.503 92.4678C168.209 91.6214 168.526 90.4737 168.455 89.0248L168.052 80.8427L172.143 80.6413L172.923 96.4941L169.312 96.6719L168.86 94.0029C168.416 94.9645 167.739 95.7455 166.829 96.3456C165.94 96.9447 164.877 97.2747 163.642 97.3356ZM177.123 96.2873L176.342 80.4345L179.986 80.2551L180.516 83.2086C181.041 82.1575 181.779 81.3095 182.729 80.6646C183.701 79.9974 184.857 79.6307 186.2 79.5646L186.412 83.8794L185.261 83.9361C184.367 83.9801 183.574 84.158 182.885 84.4696C182.195 84.7812 181.665 85.2879 181.294 85.9897C180.944 86.6904 180.799 87.648 180.858 88.8626L181.214 96.0858L177.123 96.2873ZM208.009 95.1509C205.772 95.2611 203.787 94.8675 202.056 93.9703C200.346 93.0719 198.968 91.7834 197.925 90.1047C196.901 88.4037 196.333 86.4132 196.221 84.1333C196.109 81.8534 196.479 79.8274 197.331 78.0553C198.204 76.2609 199.447 74.8327 201.061 73.7707C202.696 72.7077 204.632 72.1211 206.87 72.0109C209.086 71.9018 211.059 72.2959 212.791 73.1931C214.522 74.0904 215.9 75.3896 216.924 77.0906C217.946 78.7704 218.514 80.7502 218.626 83.0301C218.738 85.31 218.368 87.3466 217.517 89.14C216.664 90.9121 215.421 92.3296 213.786 93.3927C212.151 94.4557 210.225 95.0418 208.009 95.1509ZM207.828 91.4754C209.959 91.3704 211.618 90.5839 212.806 89.1157C214.015 87.6464 214.559 85.6866 214.439 83.2363C214.318 80.7859 213.584 78.889 212.236 77.5457C210.91 76.2013 209.181 75.5816 207.051 75.6865C204.92 75.7914 203.25 76.5785 202.041 78.0477C200.831 79.517 200.287 81.4768 200.408 83.9271C200.528 86.3775 201.263 88.2744 202.61 89.6177C203.958 90.9611 205.697 91.5803 207.828 91.4754ZM222.693 94.0434L221.912 78.1906L225.524 78.0128L225.976 80.6818C226.42 79.7201 227.086 78.9397 227.975 78.3406C228.885 77.7405 229.969 77.4094 231.226 77.3475C233.186 77.251 234.74 77.7939 235.888 78.9762C237.035 80.1586 237.668 81.9429 237.785 84.3294L238.226 93.2785L234.135 93.48L233.713 84.9144C233.646 83.5507 233.318 82.5203 232.728 81.8231C232.138 81.1259 231.258 80.8062 230.086 80.8639C228.935 80.9205 228.007 81.3721 227.301 82.2185C226.616 83.0638 226.31 84.211 226.381 85.6599L226.784 93.842L222.693 94.0434ZM242.138 93.0859L241.005 70.0738L245.096 69.8724L246.229 92.8845L242.138 93.0859ZM251.713 74.2562C250.967 74.293 250.338 74.0997 249.826 73.6763C249.335 73.252 249.073 72.6988 249.039 72.017C249.006 71.3352 249.213 70.7696 249.661 70.3204C250.129 69.8488 250.736 69.5946 251.481 69.5579C252.227 69.5212 252.846 69.715 253.336 70.1394C253.847 70.5414 254.12 71.0834 254.153 71.7652C254.187 72.447 253.97 73.0238 253.502 73.4953C253.055 73.9659 252.459 74.2195 251.713 74.2562ZM250.569 92.6708L249.788 76.818L253.88 76.6165L254.66 92.4693L250.569 92.6708ZM258.93 92.2591L258.15 76.4063L261.761 76.2284L262.213 78.8974C262.657 77.9358 263.323 77.1554 264.212 76.5563C265.123 75.9561 266.206 75.6251 267.463 75.5632C269.424 75.4667 270.978 76.0096 272.125 77.1919C273.273 78.3742 273.905 80.1586 274.023 82.5451L274.463 91.4942L270.372 91.6957L269.951 83.13C269.883 81.7663 269.555 80.7359 268.965 80.0387C268.376 79.3416 267.495 79.0218 266.323 79.0795C265.172 79.1362 264.244 79.5877 263.538 80.4341C262.854 81.2795 262.547 82.4266 262.618 83.8755L263.021 92.0576L258.93 92.2591ZM286.097 91.3058C284.499 91.3845 283.065 91.1134 281.796 90.4924C280.526 89.8714 279.51 88.9603 278.746 87.7591C277.982 86.5579 277.56 85.1476 277.48 83.5282C277.399 81.8875 277.668 80.4112 278.287 79.0992C278.927 77.7861 279.837 76.7481 281.017 75.9851C282.217 75.1998 283.649 74.7662 285.311 74.6844C286.866 74.6078 288.257 74.8811 289.484 75.5041C290.711 76.1272 291.684 77.0191 292.403 78.1798C293.143 79.3182 293.548 80.6118 293.619 82.0607C293.631 82.2951 293.632 82.5406 293.624 82.7974C293.636 83.0531 293.639 83.3199 293.631 83.598L281.582 84.1913C281.728 85.4229 282.202 86.3714 283.003 87.0368C283.826 87.7011 284.792 88.006 285.9 87.9515C286.731 87.9106 287.414 87.6953 287.95 87.3058C288.507 86.894 288.909 86.3829 289.156 85.7727L293.311 85.5681C293.062 86.5842 292.607 87.5251 291.945 88.3907C291.303 89.234 290.482 89.9152 289.482 90.4343C288.504 90.9524 287.375 91.2429 286.097 91.3058ZM285.474 78.0084C284.473 78.0577 283.603 78.3889 282.864 79.0019C282.124 79.5937 281.676 80.4701 281.52 81.6312L289.414 81.2425C289.299 80.2016 288.874 79.3895 288.141 78.8062C287.407 78.2229 286.518 77.957 285.474 78.0084ZM305.189 89.9813L304.087 67.6084L312.365 67.2008C314.155 67.1126 315.651 67.338 316.852 67.8769C318.053 68.4158 318.967 69.1932 319.594 70.2089C320.221 71.2246 320.566 72.3824 320.63 73.6822C320.691 74.918 320.47 76.0716 319.967 77.1429C319.464 78.193 318.642 79.0665 317.501 79.7634C316.36 80.439 314.873 80.8219 313.04 80.9122L308.853 81.1183L309.28 89.7798L305.189 89.9813ZM308.69 77.7944L312.621 77.6008C314.049 77.5305 315.056 77.1712 315.644 76.5228C316.251 75.8521 316.529 74.9734 316.475 73.8867C316.42 72.7788 316.058 71.9315 315.389 71.3451C314.739 70.7363 313.701 70.467 312.273 70.5373L308.342 70.7309L308.69 77.7944ZM324.507 89.0301L323.726 73.1773L327.37 72.9978L327.9 75.9514C328.425 74.9003 329.163 74.0523 330.113 73.4074C331.084 72.7402 332.241 72.3735 333.584 72.3074L333.796 76.6222L332.645 76.6789C331.75 76.7229 330.958 76.9008 330.269 77.2124C329.579 77.524 329.049 78.0307 328.678 78.7325C328.328 79.4332 328.183 80.3908 328.242 81.6054L328.598 88.8286L324.507 89.0301ZM344.62 88.4242C343.022 88.5029 341.588 88.2317 340.319 87.6107C339.049 86.9897 338.032 86.0786 337.268 84.8774C336.504 83.6762 336.083 82.2659 336.003 80.6465C335.922 79.0059 336.191 77.5295 336.81 76.2175C337.45 74.9044 338.36 73.8664 339.54 73.1034C340.74 72.3181 342.171 71.8846 343.833 71.8027C345.389 71.7261 346.78 71.9994 348.007 72.6225C349.234 73.2456 350.207 74.1374 350.926 75.2981C351.665 76.4365 352.071 77.7301 352.142 79.179C352.154 79.4134 352.155 79.659 352.146 79.9157C352.159 80.1714 352.161 80.4383 352.154 80.7163L340.104 81.3096C340.25 82.5413 340.724 83.4898 341.526 84.1551C342.349 84.8195 343.315 85.1244 344.423 85.0698C345.254 85.0289 345.937 84.8137 346.473 84.4242C347.03 84.0123 347.432 83.5012 347.679 82.891L351.834 82.6864C351.585 83.7025 351.13 84.6434 350.467 85.509C349.826 86.3523 349.005 87.0335 348.005 87.5526C347.027 88.0707 345.898 88.3612 344.62 88.4242ZM343.997 75.1267C342.996 75.176 342.125 75.5072 341.387 76.1203C340.647 76.712 340.199 77.5885 340.042 78.7496L347.937 78.3608C347.822 77.3199 347.397 76.5078 346.664 75.9245C345.93 75.3412 345.041 75.0753 343.997 75.1267ZM362.571 87.5402C361.165 87.6095 359.918 87.4466 358.83 87.0516C357.742 86.6353 356.858 86.038 356.179 85.2598C355.5 84.4816 355.07 83.563 354.89 82.5039L359.013 82.3009C359.171 82.9125 359.538 83.4284 360.114 83.8486C360.711 84.2464 361.456 84.4233 362.351 84.3792C363.246 84.3352 363.887 84.122 364.274 83.7399C364.682 83.3567 364.875 82.9307 364.852 82.4619C364.818 81.7801 364.498 81.3366 363.889 81.1316C363.28 80.9053 362.437 80.7012 361.36 80.5193C360.671 80.4037 359.97 80.2567 359.256 80.0782C358.542 79.8998 357.879 79.6654 357.267 79.3752C356.675 79.0626 356.185 78.6596 355.798 78.166C355.409 77.6512 355.196 77.0102 355.158 76.2431C355.089 74.8368 355.585 73.627 356.646 72.6136C357.728 71.5991 359.281 71.0421 361.305 70.9424C363.18 70.8501 364.693 71.2134 365.844 72.0325C367.017 72.8505 367.747 74.0213 368.036 75.545L364.168 75.7354C363.876 74.575 362.963 74.0326 361.429 74.1081C360.662 74.1459 360.073 74.3244 359.661 74.6437C359.271 74.962 359.087 75.3448 359.109 75.7923C359.132 76.261 359.459 76.6187 360.091 76.8653C360.723 77.1119 361.556 77.3272 362.59 77.5112C363.71 77.7123 364.737 77.9501 365.669 78.2246C366.621 78.4768 367.389 78.8982 367.974 79.4888C368.557 80.0581 368.876 80.9074 368.932 82.0367C369.002 83.0158 368.789 83.9127 368.296 84.7273C367.802 85.5419 367.065 86.1976 366.086 86.6944C365.106 87.1911 363.935 87.4731 362.571 87.5402ZM380.514 86.6567C378.916 86.7354 377.482 86.4643 376.213 85.8433C374.943 85.2223 373.926 84.3112 373.162 83.11C372.398 81.9088 371.977 80.4985 371.897 78.8791C371.816 77.2384 372.085 75.7621 372.704 74.4501C373.344 73.137 374.254 72.099 375.434 71.336C376.634 70.5507 378.065 70.1171 379.727 70.0353C381.283 69.9587 382.674 70.232 383.901 70.855C385.128 71.4781 386.101 72.37 386.82 73.5307C387.559 74.6691 387.965 75.9627 388.036 77.4116C388.048 77.646 388.049 77.8915 388.04 78.1483C388.053 78.404 388.055 78.6708 388.048 78.9489L375.998 79.5422C376.144 80.7738 376.618 81.7223 377.42 82.3877C378.243 83.052 379.209 83.3569 380.317 83.3024C381.148 83.2615 381.831 83.0462 382.367 82.6567C382.924 82.2449 383.326 81.7338 383.573 81.1236L387.728 80.919C387.479 81.9351 387.024 82.876 386.361 83.7416C385.72 84.5849 384.899 85.2661 383.899 85.7852C382.921 86.3033 381.792 86.5938 380.514 86.6567ZM379.891 73.3593C378.89 73.4086 378.019 73.7398 377.281 74.3528C376.541 74.9446 376.093 75.821 375.936 76.9821L383.831 76.5934C383.716 75.5525 383.291 74.7404 382.558 74.1571C381.824 73.5738 380.935 73.3079 379.891 73.3593ZM391.894 85.7119L391.113 69.8591L394.725 69.6813L395.177 72.3503C395.621 71.3886 396.287 70.6082 397.176 70.0091C398.086 69.409 399.17 69.0779 400.427 69.016C402.388 68.9195 403.942 69.4624 405.089 70.6447C406.237 71.8271 406.869 73.6114 406.987 75.9979L407.427 84.947L403.336 85.1485L402.914 76.5829C402.847 75.2192 402.519 74.1888 401.929 73.4916C401.34 72.7944 400.459 72.4747 399.287 72.5324C398.136 72.589 397.208 73.0406 396.502 73.887C395.818 74.7323 395.511 75.8795 395.582 77.3284L395.985 85.5105L391.894 85.7119ZM419.125 84.7555C417.505 84.8353 416.06 84.554 414.79 83.9117C413.52 83.2694 412.491 82.3375 411.705 81.116C410.94 79.8935 410.517 78.4726 410.438 76.8532C410.358 75.2338 410.639 73.7783 411.28 72.4865C411.942 71.1937 412.874 70.1653 414.076 69.4013C415.277 68.6373 416.687 68.2154 418.306 68.1357C420.331 68.036 422.061 68.4847 423.499 69.4819C424.935 70.4578 425.891 71.8632 426.366 73.698L422.051 73.9105C421.8 73.1539 421.345 72.5783 420.684 72.1836C420.044 71.7666 419.298 71.579 418.446 71.621C417.317 71.6766 416.379 72.15 415.632 73.0411C414.886 73.9322 414.55 75.1342 414.625 76.647C414.699 78.1599 415.151 79.323 415.982 80.1365C416.812 80.95 417.792 81.3289 418.921 81.2733C419.774 81.2314 420.498 80.9821 421.095 80.5255C421.713 80.0679 422.11 79.4396 422.284 78.6408L426.599 78.4283C426.303 80.237 425.49 81.7188 424.158 82.8737C422.827 84.0286 421.149 84.6559 419.125 84.7555ZM438.225 83.815C436.627 83.8937 435.193 83.6226 433.924 83.0016C432.654 82.3806 431.638 81.4695 430.874 80.2683C430.11 79.0671 429.688 77.6568 429.608 76.0374C429.527 74.3967 429.796 72.9204 430.415 71.6083C431.056 70.2953 431.966 69.2572 433.145 68.4943C434.346 67.709 435.777 67.2754 437.439 67.1936C438.994 67.117 440.385 67.3902 441.612 68.0133C442.839 68.6364 443.812 69.5283 444.531 70.689C445.271 71.8273 445.676 73.121 445.748 74.5699C445.759 74.8043 445.76 75.0498 445.752 75.3066C445.764 75.5622 445.767 75.8291 445.759 76.1072L433.71 76.7005C433.856 77.9321 434.33 78.8806 435.131 79.546C435.954 80.2103 436.92 80.5152 438.028 80.4607C438.859 80.4197 439.542 80.2045 440.079 79.815C440.635 79.4032 441.037 78.8921 441.285 78.2819L445.44 78.0773C445.191 79.0934 444.735 80.0343 444.073 80.8999C443.431 81.7432 442.61 82.4243 441.61 82.9435C440.632 83.4616 439.504 83.7521 438.225 83.815ZM437.602 70.5176C436.601 70.5669 435.731 70.8981 434.992 71.5111C434.252 72.1029 433.804 72.9793 433.648 74.1404L441.542 73.7517C441.427 72.7108 441.002 71.8987 440.269 71.3154C439.535 70.7321 438.646 70.4661 437.602 70.5176ZM460.321 82.3425L454.906 66.7179L458.966 66.5181L462.276 77.7929L464.91 66.2253L469.449 66.0019L473.207 77.2547L475.426 65.7076L479.485 65.5077L475.599 81.5903L471.348 81.7996L467.376 70.1088L464.572 82.1332L460.321 82.3425ZM484.15 62.811C483.404 62.8477 482.775 62.6544 482.263 62.2311C481.772 61.8067 481.51 61.2536 481.477 60.5718C481.443 59.8899 481.65 59.3244 482.098 58.8751C482.566 58.4036 483.173 58.1494 483.919 58.1127C484.664 58.076 485.283 58.2698 485.773 58.6942C486.284 59.0962 486.557 59.6381 486.59 60.32C486.624 61.0018 486.407 61.5785 485.939 62.0501C485.492 62.5206 484.896 62.7743 484.15 62.811ZM483.006 81.2255L482.226 65.3727L486.317 65.1713L487.097 81.0241L483.006 81.2255ZM498.431 80.466C496.769 80.5479 495.417 80.2086 494.376 79.4482C493.334 78.6878 492.763 77.2742 492.661 75.2074L492.321 68.3038L489.605 68.4375L489.436 65.0177L492.153 64.8839L492.423 60.6095L496.035 60.4316L496.244 64.6825L500.527 64.4716L500.695 67.8914L496.412 68.1023L496.754 75.0379C496.792 75.805 496.978 76.3298 497.312 76.6124C497.666 76.8726 498.249 76.9828 499.058 76.9429L501.04 76.8453L501.211 80.3291L498.431 80.466ZM504.82 80.1514L503.687 57.1393L507.778 56.9379L508.25 66.5262C508.739 65.6264 509.42 64.9094 510.291 64.3753C511.182 63.8188 512.213 63.5117 513.385 63.454C515.345 63.3574 516.888 63.9009 518.015 65.0843C519.162 66.2666 519.795 68.051 519.912 70.4374L520.353 79.3866L516.294 79.5864L515.872 71.0208C515.805 69.6571 515.477 68.6267 514.887 67.9295C514.319 67.2313 513.448 66.911 512.276 66.9687C511.126 67.0254 510.187 67.4775 509.46 68.3249C508.754 69.1713 508.437 70.319 508.508 71.7679L508.911 79.95L504.82 80.1514ZM537.365 78.9334C536.001 79.0005 534.872 78.8425 533.978 78.4594C533.082 78.0549 532.403 77.501 531.941 76.7975C531.48 76.094 531.227 75.3055 531.184 74.4319C531.112 72.9617 531.628 71.7401 532.734 70.7672C533.839 69.7944 535.543 69.2513 537.844 69.138L541.871 68.9397L541.852 68.5561C541.799 67.4694 541.45 66.6856 540.807 66.2047C540.164 65.7237 539.384 65.5058 538.468 65.5509C537.637 65.5918 536.923 65.8299 536.325 66.2652C535.726 66.6791 535.37 67.2733 535.259 68.0477L531.264 68.2445C531.314 67.0886 531.648 66.0683 532.267 65.1835C532.906 64.2976 533.748 63.6047 534.791 63.1048C535.834 62.5835 537.015 62.2904 538.336 62.2254C540.595 62.1141 542.402 62.5912 543.757 63.6565C545.113 64.7218 545.841 66.2878 545.943 68.3547L546.423 78.1029L542.939 78.2744L542.43 75.7364C542.003 76.6118 541.377 77.3474 540.552 77.9434C539.748 78.5383 538.686 78.8683 537.365 78.9334ZM538.134 75.6916C539.306 75.6339 540.193 75.2058 540.795 74.4072C541.417 73.6076 541.786 72.639 541.901 71.5013L538.417 71.6728C537.331 71.7263 536.563 71.967 536.114 72.395C535.664 72.8016 535.453 73.2925 535.482 73.8679C535.512 74.4858 535.77 74.9536 536.256 75.2715C536.741 75.5893 537.367 75.7294 538.134 75.6916ZM565.006 77.1878C563.344 77.2697 561.993 76.9304 560.951 76.17C559.91 75.4096 559.339 73.996 559.237 71.9292L558.897 65.0256L556.18 65.1593L556.012 61.7395L558.728 61.6057L558.999 57.3313L562.61 57.1534L562.819 61.4043L567.102 61.1934L567.271 64.6132L562.988 64.8241L563.329 71.7597C563.367 72.5268 563.553 73.0516 563.887 73.3342C564.242 73.5944 564.824 73.7046 565.634 73.6647L567.615 73.5671L567.787 77.0509L565.006 77.1878ZM576.88 76.9876C575.516 77.0548 574.387 76.8968 573.492 76.5137C572.597 76.1092 571.918 75.5553 571.456 74.8518C570.994 74.1483 570.742 73.3598 570.699 72.4862C570.626 71.016 571.143 69.7944 572.248 68.8215C573.354 67.8487 575.057 67.3056 577.358 67.1922L581.386 66.9939L581.367 66.6104C581.313 65.5237 580.965 64.7399 580.322 64.259C579.679 63.778 578.899 63.5601 577.983 63.6052C577.152 63.6461 576.437 63.8842 575.839 64.3195C575.24 64.7334 574.885 65.3276 574.774 66.102L570.779 66.2988C570.828 65.1429 571.163 64.1226 571.781 63.2377C572.421 62.3519 573.263 61.659 574.306 61.1591C575.348 60.6378 576.53 60.3447 577.851 60.2797C580.11 60.1684 581.917 60.6455 583.272 61.7108C584.627 62.7761 585.356 64.3421 585.458 66.409L585.938 76.1572L582.454 76.3287L581.945 73.7907C581.518 74.6661 580.892 75.4017 580.067 75.9977C579.263 76.5926 578.201 76.9226 576.88 76.9876ZM577.649 73.7459C578.821 73.6882 579.708 73.26 580.309 72.4615C580.932 71.6619 581.301 70.6933 581.416 69.5556L577.932 69.7271C576.845 69.7806 576.077 70.0213 575.629 70.4493C575.179 70.8559 574.968 71.3468 574.996 71.9221C575.027 72.5401 575.285 73.0079 575.77 73.3258C576.256 73.6436 576.882 73.7836 577.649 73.7459ZM591.145 57.5425C590.4 57.5792 589.771 57.3859 589.259 56.9626C588.768 56.5382 588.506 55.9851 588.472 55.3033C588.438 54.6214 588.645 54.0559 589.093 53.6067C589.561 53.1351 590.168 52.8809 590.914 52.8442C591.66 52.8075 592.278 53.0013 592.769 53.4257C593.28 53.8277 593.552 54.3696 593.586 55.0515C593.619 55.7333 593.402 56.31 592.934 56.7816C592.487 57.2522 591.891 57.5058 591.145 57.5425ZM590.002 75.9571L589.221 60.1043L593.312 59.9028L594.093 75.7556L590.002 75.9571ZM598.363 75.5454L597.23 52.5332L601.321 52.3318L602.454 75.3439L598.363 75.5454ZM614.26 75.1471C612.725 75.2226 611.323 74.9392 610.053 74.2969C608.804 73.6536 607.786 72.7318 607.001 71.5317C606.236 70.3091 605.813 68.8775 605.732 67.2369C605.651 65.5962 605.943 64.1401 606.606 62.8686C607.269 61.5758 608.19 60.5479 609.37 59.7849C610.571 59.0209 611.939 58.6012 613.473 58.5256C614.986 58.4511 616.367 58.7355 617.616 59.3789C618.887 60.0212 619.904 60.9536 620.669 62.1761C621.455 63.3763 621.888 64.7967 621.969 66.4374C622.049 68.0781 621.758 69.5448 621.096 70.8376C620.454 72.1081 619.532 73.1253 618.331 73.8893C617.129 74.6533 615.772 75.0726 614.26 75.1471ZM614.085 71.5993C615.15 71.5469 616.058 71.1071 616.807 70.2799C617.556 69.4314 617.891 68.2187 617.814 66.642C617.736 65.0652 617.284 63.9021 616.456 63.1525C615.628 62.3816 614.692 62.0219 613.648 62.0733C612.561 62.1268 611.644 62.5778 610.895 63.4263C610.167 64.2525 609.842 65.4539 609.919 67.0307C609.997 68.6074 610.439 69.7818 611.246 70.5537C612.073 71.3033 613.02 71.6518 614.085 71.5993ZM626.017 74.1837L625.236 58.3309L628.88 58.1515L629.41 61.105C629.935 60.0539 630.672 59.2059 631.623 58.561C632.594 57.8938 633.751 57.5271 635.093 57.461L635.306 61.7758L634.155 61.8325C633.26 61.8765 632.468 62.0544 631.778 62.366C631.089 62.6776 630.559 63.1843 630.187 63.8861C629.837 64.5868 629.692 65.5444 629.752 66.759L630.108 73.9822L626.017 74.1837ZM646.129 73.5778C644.531 73.6565 643.098 73.3853 641.828 72.7643C640.559 72.1433 639.542 71.2322 638.778 70.031C638.014 68.8298 637.592 67.4195 637.513 65.8001C637.432 64.1595 637.701 62.6831 638.32 61.3711C638.96 60.058 639.87 59.02 641.05 58.2571C642.25 57.4717 643.681 57.0382 645.343 56.9563C646.899 56.8797 648.29 57.153 649.516 57.7761C650.743 58.3992 651.716 59.2911 652.436 60.4518C653.175 61.5901 653.581 62.8837 653.652 64.3326C653.663 64.567 653.665 64.8126 653.656 65.0693C653.669 65.325 653.671 65.5919 653.664 65.8699L641.614 66.4632C641.76 67.6949 642.234 68.6434 643.036 69.3088C643.859 69.9731 644.824 70.278 645.932 70.2234C646.763 70.1825 647.447 69.9673 647.983 69.5778C648.539 69.1659 648.941 68.6549 649.189 68.0446L653.344 67.84C653.095 68.8562 652.639 69.797 651.977 70.6627C651.335 71.5059 650.514 72.1871 649.515 72.7062C648.536 73.2243 647.408 73.5148 646.129 73.5778ZM645.507 60.2803C644.505 60.3296 643.635 60.6608 642.896 61.2739C642.157 61.8657 641.709 62.7421 641.552 63.9032L649.447 63.5145C649.331 62.4735 648.907 61.6614 648.173 61.0781C647.44 60.4948 646.551 60.2289 645.507 60.2803ZM664.816 72.6577C663.324 72.7311 661.975 72.4344 660.767 71.7677C659.56 71.1009 658.584 70.1558 657.84 68.9322C657.096 67.7086 656.685 66.2978 656.607 64.6998C656.528 63.1017 656.799 61.668 657.42 60.3985C658.04 59.1078 658.919 58.082 660.056 57.3212C661.192 56.539 662.506 56.1112 663.997 56.0378C665.191 55.979 666.246 56.1514 667.163 56.5547C668.08 56.9581 668.835 57.551 669.429 58.3334L668.969 49.0007L673.06 48.7993L674.194 71.8114L670.55 71.9908L669.991 69.7436C669.514 70.4719 668.863 71.1234 668.037 71.6981C667.232 72.2717 666.158 72.5916 664.816 72.6577ZM665.503 69.0355C666.824 68.9704 667.878 68.4807 668.666 67.5661C669.474 66.6292 669.844 65.4683 669.776 64.0833C669.708 62.6983 669.226 61.59 668.331 60.7584C667.456 59.9044 666.358 59.5099 665.037 59.575C663.737 59.639 662.682 60.1287 661.873 61.0443C661.064 61.9599 660.693 63.1102 660.761 64.4952C660.83 65.8802 661.312 66.9991 662.208 67.8521C663.105 68.705 664.203 69.0995 665.503 69.0355ZM691.281 70.97L690.341 51.8892L683.821 52.2102L683.659 48.9182L700.822 48.0731L700.984 51.3651L694.432 51.6877L695.372 70.7686L691.281 70.97ZM709.709 70.4471C708.111 70.5258 706.677 70.2547 705.407 69.6337C704.138 69.0127 703.121 68.1016 702.357 66.9004C701.593 65.6992 701.171 64.2889 701.092 62.6695C701.011 61.0288 701.28 59.5525 701.899 58.2404C702.539 56.9274 703.449 55.8894 704.629 55.1264C705.829 54.3411 707.26 53.9075 708.922 53.8257C710.478 53.7491 711.869 54.0223 713.096 54.6454C714.322 55.2685 715.295 56.1604 716.015 57.3211C716.754 58.4594 717.16 59.7531 717.231 61.202C717.243 61.4364 717.244 61.6819 717.235 61.9387C717.248 62.1943 717.25 62.4612 717.243 62.7393L705.193 63.3326C705.339 64.5642 705.813 65.5127 706.615 66.1781C707.438 66.8424 708.403 67.1473 709.511 67.0928C710.342 67.0518 711.026 66.8366 711.562 66.4471C712.119 66.0353 712.521 65.5242 712.768 64.914L716.923 64.7094C716.674 65.7255 716.219 66.6664 715.556 67.532C714.914 68.3753 714.094 69.0565 713.094 69.5756C712.116 70.0937 710.987 70.3842 709.709 70.4471ZM709.086 57.1497C708.085 57.199 707.214 57.5302 706.476 58.1432C705.736 58.735 705.288 59.6114 705.131 60.7725L713.026 60.3838C712.91 59.3429 712.486 58.5308 711.752 57.9475C711.019 57.3642 710.13 57.0982 709.086 57.1497ZM728.874 69.5034C727.255 69.5831 725.81 69.3019 724.54 68.6596C723.269 68.0173 722.241 67.0854 721.454 65.8639C720.689 64.6414 720.267 63.2204 720.187 61.6011C720.108 59.9817 720.388 58.5261 721.03 57.2344C721.692 55.9415 722.624 54.9131 723.825 54.1491C725.026 53.3851 726.437 52.9633 728.056 52.8835C730.08 52.7839 731.811 53.2326 733.249 54.2298C734.685 55.2057 735.641 56.611 736.115 58.4459L731.801 58.6584C731.55 57.9018 731.094 57.3262 730.434 56.9315C729.794 56.5144 729.048 56.3269 728.196 56.3689C727.066 56.4245 726.129 56.8979 725.382 57.789C724.636 58.6801 724.3 59.8821 724.374 61.3949C724.449 62.9077 724.901 64.0709 725.731 64.8844C726.562 65.6979 727.542 66.0768 728.671 66.0212C729.523 65.9792 730.248 65.7299 730.845 65.2734C731.463 64.8157 731.859 64.1875 732.034 63.3886L736.348 63.1762C736.053 64.9849 735.239 66.4667 733.908 67.6216C732.577 68.7764 730.899 69.4037 728.874 69.5034ZM740.253 68.5586L739.12 45.5465L743.211 45.3451L743.683 54.9335C744.173 54.0336 744.853 53.3166 745.724 52.7825C746.615 52.226 747.647 51.9189 748.818 51.8612C750.779 51.7647 752.322 52.3081 753.448 53.4915C754.596 54.6738 755.228 56.4582 755.346 58.8446L755.786 67.7938L751.727 67.9936L751.306 59.428C751.238 58.0643 750.91 57.0339 750.32 56.3367C749.752 55.6385 748.882 55.3183 747.71 55.376C746.559 55.4326 745.62 55.8847 744.893 56.7321C744.187 57.5785 743.87 58.7262 743.941 60.1751L744.344 68.3572L740.253 68.5586ZM775.068 67.2288C773.427 67.3096 771.965 67.104 770.68 66.6119C769.395 66.0985 768.364 65.3376 767.588 64.3292C766.811 63.2995 766.375 62.0287 766.279 60.5169L770.594 60.3045C770.688 61.3465 771.104 62.2124 771.843 62.9022C772.602 63.5697 773.61 63.8724 774.867 63.8105C775.954 63.757 776.804 63.4589 777.418 62.916C778.031 62.3518 778.316 61.6329 778.273 60.7593C778.228 59.8431 777.906 59.1435 777.305 58.6604C776.726 58.1763 775.96 57.7976 775.006 57.5241C774.053 57.2507 773.035 56.959 771.952 56.6493C770.196 56.1377 768.838 55.4356 767.875 54.5432C766.934 53.6497 766.425 52.4253 766.349 50.8698C766.262 49.5498 766.516 48.4053 767.109 47.4363C767.722 46.4449 768.581 45.6658 769.685 45.0988C770.788 44.5105 772.075 44.1801 773.545 44.1077C775.036 44.0343 776.36 44.2361 777.515 44.7132C778.692 45.1892 779.624 45.8909 780.31 46.8183C781.018 47.7446 781.426 48.8673 781.533 50.1862L777.155 50.4018C777.095 49.6145 776.752 48.9372 776.126 48.37C775.52 47.7804 774.695 47.5113 773.651 47.5627C772.755 47.5855 772.009 47.8464 771.415 48.3456C770.84 48.8225 770.574 49.4977 770.617 50.3713C770.654 51.1171 770.918 51.7021 771.409 52.1265C771.898 52.5296 772.555 52.8603 773.38 53.1188C774.204 53.3772 775.147 53.6512 776.208 53.9407C777.334 54.2697 778.369 54.6673 779.31 55.1336C780.251 55.5998 781.02 56.2455 781.616 57.0705C782.211 57.8742 782.541 58.9366 782.606 60.2577C782.664 61.4296 782.419 62.5309 781.872 63.5618C781.324 64.5926 780.48 65.4458 779.338 66.1215C778.196 66.7758 776.772 67.1449 775.068 67.2288ZM794.011 66.2961C792.476 66.3716 791.074 66.0882 789.804 65.446C788.554 64.8026 787.537 63.8809 786.752 62.6807C785.987 61.4582 785.564 60.0266 785.483 58.3859C785.402 56.7452 785.694 55.2891 786.357 54.0176C787.02 52.7248 787.941 51.6969 789.121 50.934C790.322 50.17 791.69 49.7502 793.224 49.6746C794.737 49.6002 796.118 49.8846 797.367 50.5279C798.638 51.1702 799.655 52.1026 800.42 53.3251C801.206 54.5253 801.639 55.9457 801.72 57.5864C801.8 59.2271 801.509 60.6938 800.847 61.9867C800.205 63.2571 799.283 64.2743 798.082 65.0383C796.88 65.8023 795.523 66.2216 794.011 66.2961ZM793.836 62.7484C794.901 62.6959 795.809 62.2561 796.558 61.4289C797.307 60.5804 797.642 59.3678 797.565 57.791C797.487 56.2142 797.035 55.0511 796.207 54.3015C795.379 53.5307 794.443 53.1709 793.399 53.2223C792.312 53.2759 791.395 53.7269 790.646 54.5754C789.918 55.4015 789.592 56.603 789.67 58.1797C789.748 59.7565 790.19 60.9308 790.997 61.7027C791.824 62.4523 792.77 62.8008 793.836 62.7484ZM805.768 65.3327L804.635 42.3206L808.726 42.1191L809.859 65.1313L805.768 65.3327ZM820.003 65.0162C818.021 65.1138 816.456 64.5714 815.309 63.3891C814.183 62.2057 813.561 60.4208 813.443 58.0344L813.003 49.0852L817.062 48.8853L817.483 57.451C817.551 58.8146 817.879 59.8451 818.469 60.5423C819.058 61.2394 819.95 61.5586 821.143 61.4999C822.272 61.4443 823.179 60.9938 823.864 60.1484C824.57 59.302 824.887 58.1544 824.816 56.7055L824.413 48.5234L828.504 48.3219L829.284 64.1747L825.673 64.3526L825.221 61.6836C824.777 62.6452 824.1 63.4261 823.19 64.0263C822.301 64.6254 821.238 64.9554 820.003 65.0162ZM840.548 63.6201C838.886 63.702 837.534 63.3627 836.493 62.6023C835.451 61.8419 834.88 60.4283 834.778 58.3615L834.438 51.4579L831.721 51.5917L831.553 48.1718L834.27 48.038L834.54 43.7636L838.151 43.5857L838.361 47.8366L842.643 47.6257L842.812 51.0456L838.529 51.2564L838.871 58.192C838.908 58.9591 839.094 59.4839 839.429 59.7665C839.783 60.0267 840.365 60.1369 841.175 60.097L843.157 59.9994L843.328 63.4832L840.548 63.6201ZM848.24 44.8831C847.494 44.9199 846.865 44.7265 846.353 44.3032C845.862 43.8788 845.6 43.3257 845.567 42.6439C845.533 41.9621 845.74 41.3965 846.188 40.9473C846.656 40.4757 847.263 40.2215 848.009 40.1848C848.754 40.1481 849.373 40.3419 849.864 40.7663C850.375 41.1683 850.647 41.7103 850.681 42.3921C850.714 43.0739 850.497 43.6506 850.029 44.1222C849.582 44.5928 848.986 44.8464 848.24 44.8831ZM847.096 63.2977L846.316 47.4449L850.407 47.2434L851.187 63.0962L847.096 63.2977ZM863.083 62.8949C861.549 62.9705 860.147 62.6871 858.876 62.0448C857.627 61.4015 856.61 60.4797 855.825 59.2795C855.059 58.057 854.637 56.6254 854.556 54.9847C854.475 53.3441 854.766 51.888 855.43 50.6165C856.093 49.3236 857.014 48.2958 858.194 47.5328C859.395 46.7688 860.763 46.349 862.297 46.2735C863.81 46.199 865.191 46.4834 866.44 47.1268C867.71 47.7691 868.728 48.7015 869.493 49.924C870.278 51.1242 870.711 52.5446 870.792 54.1853C870.873 55.8259 870.582 57.2927 869.919 58.5855C869.277 59.856 868.355 60.8732 867.154 61.6372C865.953 62.4012 864.596 62.8204 863.083 62.8949ZM862.908 59.3472C863.974 59.2948 864.881 58.8549 865.631 58.0277C866.379 57.1792 866.715 55.9666 866.637 54.3899C866.559 52.8131 866.107 51.6499 865.28 50.9004C864.452 50.1295 863.515 49.7698 862.471 49.8212C861.385 49.8747 860.467 50.3257 859.719 51.1742C858.99 52.0004 858.665 53.2018 858.743 54.7786C858.82 56.3553 859.263 57.5297 860.07 58.3016C860.897 59.0511 861.843 59.3997 862.908 59.3472ZM874.84 61.9316L874.06 46.0788L877.671 45.9009L878.123 48.5699C878.567 47.6083 879.233 46.8279 880.122 46.2288C881.033 45.6286 882.116 45.2976 883.373 45.2357C885.334 45.1392 886.888 45.6821 888.035 46.8644C889.183 48.0467 889.815 49.8311 889.933 52.2175L890.373 61.1667L886.282 61.3681L885.861 52.8025C885.793 51.4388 885.465 50.4084 884.875 49.7112C884.286 49.0141 883.405 48.6943 882.233 48.752C881.082 48.8087 880.154 49.2602 879.448 50.1066C878.764 50.952 878.457 52.0991 878.528 53.548L878.931 61.7301L874.84 61.9316ZM900.856 61.035C899.45 61.1042 898.203 60.9413 897.116 60.5463C896.027 60.13 895.144 59.5328 894.464 58.7546C893.785 57.9764 893.356 57.0577 893.175 55.9986L897.298 55.7956C897.457 56.4072 897.824 56.9231 898.4 57.3433C898.996 57.7411 899.742 57.918 900.637 57.874C901.532 57.8299 902.173 57.6168 902.56 57.2346C902.968 56.8514 903.16 56.4254 903.137 55.9567C903.104 55.2748 902.783 54.8314 902.175 54.6264C901.566 54.4001 900.723 54.1959 899.646 54.014C898.956 53.8984 898.255 53.7514 897.541 53.573C896.828 53.3945 896.165 53.1602 895.552 52.8699C894.96 52.5574 894.471 52.1543 894.083 51.6607C893.695 51.1459 893.482 50.5049 893.444 49.7379C893.375 48.3316 893.87 47.1217 894.931 46.1083C896.013 45.0939 897.566 44.5368 899.591 44.4371C901.466 44.3448 902.979 44.7082 904.13 45.5272C905.302 46.3452 906.032 47.5161 906.321 49.0397L902.454 49.2301C902.162 48.0698 901.249 47.5273 899.714 47.6029C898.947 47.6407 898.358 47.8192 897.947 48.1385C897.556 48.4567 897.372 48.8396 897.394 49.287C897.417 49.7558 897.745 50.1135 898.376 50.36C899.008 50.6066 899.841 50.8219 900.875 51.0059C901.996 51.207 903.022 51.4449 903.954 51.7194C904.906 51.9715 905.674 52.3929 906.259 52.9835C906.842 53.5529 907.162 54.4022 907.217 55.5315C907.287 56.5106 907.075 57.4074 906.581 58.222C906.087 59.0366 905.35 59.6923 904.371 60.1891C903.392 60.6859 902.22 60.9678 900.856 61.035Z" fill="black"/>
<path d="M979.844 33.7331L982.209 41.5178L989.437 37.7843L984.825 44.4864L992.251 47.8102L984.135 48.3829L986.167 56.261L980.659 50.273L975.766 56.7732L977.014 48.7336L968.881 48.9609L975.944 44.9237L970.696 38.7071L978.256 41.7124L979.844 33.7331Z" fill="#EBE9F1"/>
<path d="M1055.06 53.0572L1053.96 30.6843L1068.57 29.9651L1068.73 33.2571L1058.21 33.7749L1058.52 39.9114L1068.07 39.4409L1068.23 42.637L1058.67 43.1076L1058.99 49.5637L1069.51 49.046L1069.67 52.338L1055.06 53.0572ZM1073.44 52.1521L1072.31 29.14L1076.4 28.9385L1077.53 51.9506L1073.44 52.1521ZM1089.44 51.7491C1087.84 51.8277 1086.4 51.5566 1085.13 50.9356C1083.87 50.3146 1082.85 49.4035 1082.08 48.2023C1081.32 47.0011 1080.9 45.5908 1080.82 43.9714C1080.74 42.3307 1081.01 40.8544 1081.63 39.5424C1082.27 38.2293 1083.18 37.1913 1084.36 36.4283C1085.56 35.643 1086.99 35.2095 1088.65 35.1276C1090.2 35.051 1091.6 35.3243 1092.82 35.9474C1094.05 36.5704 1095.02 37.4623 1095.74 38.623C1096.48 39.7614 1096.89 41.055 1096.96 42.5039C1096.97 42.7383 1096.97 42.9839 1096.96 43.2406C1096.98 43.4963 1096.98 43.7631 1096.97 44.0412L1084.92 44.6345C1085.07 45.8662 1085.54 46.8147 1086.34 47.48C1087.17 48.1444 1088.13 48.4492 1089.24 48.3947C1090.07 48.3538 1090.75 48.1386 1091.29 47.7491C1091.85 47.3372 1092.25 46.8261 1092.5 46.2159L1096.65 46.0113C1096.4 47.0274 1095.95 47.9683 1095.28 48.8339C1094.64 49.6772 1093.82 50.3584 1092.82 50.8775C1091.84 51.3956 1090.71 51.6861 1089.44 51.7491ZM1088.81 38.4516C1087.81 38.5009 1086.94 38.8321 1086.2 39.4452C1085.46 40.0369 1085.01 40.9134 1084.86 42.0745L1092.75 41.6857C1092.64 40.6448 1092.21 39.8327 1091.48 39.2494C1090.75 38.6661 1089.86 38.4002 1088.81 38.4516ZM1104.47 50.6241L1097.88 35.0577L1102.16 34.8468L1106.78 46.634L1110.21 34.4502L1114.5 34.2393L1109.43 50.3801L1104.47 50.6241ZM1122.37 50.1271C1121.01 50.1943 1119.88 50.0363 1118.99 49.6532C1118.09 49.2487 1117.41 48.6948 1116.95 47.9913C1116.49 47.2878 1116.24 46.4993 1116.19 45.6257C1116.12 44.1555 1116.64 42.9339 1117.74 41.961C1118.85 40.9881 1120.55 40.445 1122.85 40.3317L1126.88 40.1334L1126.86 39.7499C1126.81 38.6632 1126.46 37.8794 1125.82 37.3984C1125.17 36.9175 1124.39 36.6996 1123.48 36.7447C1122.65 36.7856 1121.93 37.0237 1121.33 37.459C1120.74 37.8729 1120.38 38.4671 1120.27 39.2415L1116.27 39.4383C1116.32 38.2824 1116.66 37.2621 1117.28 36.3772C1117.92 35.4914 1118.76 34.7985 1119.8 34.2986C1120.84 33.7773 1122.03 33.4842 1123.35 33.4191C1125.6 33.3079 1127.41 33.785 1128.77 34.8503C1130.12 35.9156 1130.85 37.4816 1130.95 39.5485L1131.43 49.2966L1127.95 49.4682L1127.44 46.9302C1127.01 47.8056 1126.39 48.5412 1125.56 49.1372C1124.76 49.7321 1123.7 50.0621 1122.37 50.1271ZM1123.14 46.8854C1124.32 46.8277 1125.2 46.3995 1125.8 45.601C1126.43 44.8014 1126.8 43.8328 1126.91 42.6951L1123.43 42.8666C1122.34 42.9201 1121.57 43.1608 1121.12 43.5888C1120.67 43.9954 1120.46 44.4863 1120.49 45.0616C1120.52 45.6796 1120.78 46.1474 1121.27 46.4653C1121.75 46.7831 1122.38 46.9231 1123.14 46.8854ZM1142.18 48.7674C1140.52 48.8492 1139.17 48.5099 1138.13 47.7496C1137.09 46.9892 1136.51 45.5756 1136.41 43.5088L1136.07 36.6051L1133.36 36.7389L1133.19 33.319L1135.9 33.1853L1136.17 28.9108L1139.79 28.733L1139.99 32.9838L1144.28 32.7729L1144.45 36.1928L1140.16 36.4037L1140.5 43.3393C1140.54 44.1063 1140.73 44.6312 1141.06 44.9137C1141.42 45.1739 1142 45.2841 1142.81 45.2442L1144.79 45.1467L1144.96 48.6304L1142.18 48.7674ZM1155.89 48.477C1154.29 48.5557 1152.85 48.2845 1151.59 47.6636C1150.32 47.0426 1149.3 46.1315 1148.54 44.9303C1147.77 43.729 1147.35 42.3188 1147.27 40.6994C1147.19 39.0587 1147.46 37.5823 1148.08 36.2703C1148.72 34.9573 1149.63 33.9192 1150.81 33.1563C1152.01 32.371 1153.44 31.9374 1155.1 31.8556C1156.66 31.779 1158.05 32.0522 1159.27 32.6753C1160.5 33.2984 1161.47 34.1903 1162.19 35.351C1162.93 36.4893 1163.34 37.783 1163.41 39.2319C1163.42 39.4662 1163.42 39.7118 1163.41 39.9685C1163.43 40.2242 1163.43 40.4911 1163.42 40.7692L1151.37 41.3625C1151.52 42.5941 1151.99 43.5426 1152.79 44.208C1153.62 44.8723 1154.58 45.1772 1155.69 45.1226C1156.52 45.0817 1157.2 44.8665 1157.74 44.477C1158.3 44.0651 1158.7 43.5541 1158.95 42.9438L1163.1 42.7392C1162.85 43.7554 1162.4 44.6963 1161.73 45.5619C1161.09 46.4051 1160.27 47.0863 1159.27 47.6055C1158.29 48.1235 1157.17 48.4141 1155.89 48.477ZM1155.26 35.1795C1154.26 35.2289 1153.39 35.56 1152.65 36.1731C1151.91 36.7649 1151.47 37.6413 1151.31 38.8024L1159.2 38.4137C1159.09 37.3728 1158.66 36.5607 1157.93 35.9774C1157.2 35.3941 1156.31 35.1281 1155.26 35.1795ZM1180.76 46.8676L1180.37 38.9092L1172.15 24.8645L1176.79 24.6363L1182.25 34.7159L1186.66 24.15L1191.23 23.925L1184.46 38.7078L1184.85 46.6662L1180.76 46.8676ZM1199.64 46.3224C1198.11 46.3979 1196.71 46.1146 1195.44 45.4723C1194.19 44.8289 1193.17 43.9072 1192.39 42.707C1191.62 41.4845 1191.2 40.0529 1191.12 38.4122C1191.04 36.7715 1191.33 35.3154 1191.99 34.0439C1192.65 32.7511 1193.57 31.7232 1194.75 30.9603C1195.96 30.1963 1197.32 29.7765 1198.86 29.701C1200.37 29.6265 1201.75 29.9109 1203 30.5542C1204.27 31.1965 1205.29 32.1289 1206.05 33.3515C1206.84 34.5516 1207.27 35.972 1207.35 37.6127C1207.43 39.2534 1207.14 40.7201 1206.48 42.013C1205.84 43.2834 1204.92 44.3007 1203.71 45.0647C1202.51 45.8287 1201.16 46.2479 1199.64 46.3224ZM1199.47 42.7747C1200.53 42.7222 1201.44 42.2824 1202.19 41.4552C1202.94 40.6067 1203.28 39.3941 1203.2 37.8173C1203.12 36.2406 1202.67 35.0774 1201.84 34.3278C1201.01 33.557 1200.08 33.1972 1199.03 33.2487C1197.95 33.3022 1197.03 33.7532 1196.28 34.6017C1195.55 35.4278 1195.23 36.6293 1195.3 38.206C1195.38 39.7828 1195.82 40.9571 1196.63 41.729C1197.46 42.4786 1198.4 42.8272 1199.47 42.7747ZM1217.36 45.4498C1215.38 45.5474 1213.82 45.005 1212.67 43.8227C1211.54 42.6393 1210.92 40.8544 1210.81 38.468L1210.36 29.5188L1214.42 29.3189L1214.85 37.8846C1214.91 39.2482 1215.24 40.2787 1215.83 40.9758C1216.42 41.673 1217.31 41.9922 1218.51 41.9335C1219.63 41.8779 1220.54 41.4274 1221.23 40.582C1221.93 39.7356 1222.25 38.588 1222.18 37.1391L1221.77 28.957L1225.87 28.7555L1226.65 44.6083L1223.03 44.7862L1222.58 42.1171C1222.14 43.0788 1221.46 43.8597 1220.55 44.4599C1219.66 45.059 1218.6 45.389 1217.36 45.4498ZM1230.85 44.4015L1230.07 28.5487L1233.71 28.3693L1234.24 31.3228C1234.76 30.2717 1235.5 29.4238 1236.45 28.7789C1237.42 28.1117 1238.58 27.745 1239.92 27.6789L1240.14 31.9937L1238.98 32.0503C1238.09 32.0944 1237.3 32.2722 1236.61 32.5839C1235.92 32.8955 1235.39 33.4022 1235.02 34.1039C1234.67 34.8047 1234.52 35.7623 1234.58 36.9768L1234.94 44.2001L1230.85 44.4015ZM1261.73 43.2652C1259.49 43.3753 1257.51 42.9818 1255.78 42.0845C1254.07 41.1862 1252.69 39.8977 1251.65 38.219C1250.62 36.518 1250.06 34.5275 1249.94 32.2476C1249.83 29.9677 1250.2 27.9417 1251.05 26.1696C1251.93 24.3752 1253.17 22.947 1254.78 21.885C1256.42 20.822 1258.36 20.2354 1260.59 20.1252C1262.81 20.0161 1264.78 20.4101 1266.51 21.3074C1268.25 22.2047 1269.62 23.5038 1270.65 25.2049C1271.67 26.8846 1272.24 28.8644 1272.35 31.1443C1272.46 33.4243 1272.09 35.4609 1271.24 37.2543C1270.39 39.0264 1269.14 40.4439 1267.51 41.5069C1265.87 42.57 1263.95 43.156 1261.73 43.2652ZM1261.55 39.5896C1263.68 39.4847 1265.34 38.6981 1266.53 37.2299C1267.74 35.7607 1268.28 33.8009 1268.16 31.3505C1268.04 28.9002 1267.31 27.0033 1265.96 25.66C1264.63 24.3156 1262.9 23.6958 1260.77 23.8007C1258.64 23.9057 1256.97 24.6927 1255.76 26.162C1254.55 27.6312 1254.01 29.591 1254.13 32.0414C1254.25 34.4918 1254.99 36.3886 1256.33 37.732C1257.68 39.0753 1259.42 39.6945 1261.55 39.5896ZM1276.42 42.1577L1275.64 26.3049L1279.25 26.127L1279.7 28.796C1280.14 27.8344 1280.81 27.054 1281.7 26.4549C1282.61 25.8547 1283.69 25.5237 1284.95 25.4618C1286.91 25.3653 1288.46 25.9082 1289.61 27.0905C1290.76 28.2728 1291.39 30.0572 1291.51 32.4436L1291.95 41.3928L1287.86 41.5942L1287.44 33.0286C1287.37 31.6649 1287.04 30.6345 1286.45 29.9373C1285.86 29.2402 1284.98 28.9204 1283.81 28.9781C1282.66 29.0348 1281.73 29.4863 1281.02 30.3327C1280.34 31.1781 1280.03 32.3252 1280.1 33.7741L1280.51 41.9562L1276.42 42.1577ZM1295.86 41.2002L1294.73 18.1881L1298.82 17.9866L1299.95 40.9987L1295.86 41.2002ZM1305.44 22.3705C1304.69 22.4072 1304.06 22.2139 1303.55 21.7906C1303.06 21.3662 1302.8 20.8131 1302.76 20.1313C1302.73 19.4494 1302.94 18.8839 1303.38 18.4346C1303.85 17.9631 1304.46 17.7089 1305.2 17.6722C1305.95 17.6355 1306.57 17.8293 1307.06 18.2537C1307.57 18.6557 1307.84 19.1976 1307.88 19.8795C1307.91 20.5613 1307.69 21.138 1307.22 21.6096C1306.78 22.0801 1306.18 22.3338 1305.44 22.3705ZM1304.29 40.785L1303.51 24.9322L1307.6 24.7308L1308.38 40.5836L1304.29 40.785ZM1312.65 40.3733L1311.87 24.5205L1315.48 24.3427L1315.94 27.0117C1316.38 26.05 1317.05 25.2697 1317.94 24.6705C1318.85 24.0704 1319.93 23.7394 1321.19 23.6775C1323.15 23.5809 1324.7 24.1238 1325.85 25.3062C1327 26.4885 1327.63 28.2729 1327.75 30.6593L1328.19 39.6085L1324.1 39.8099L1323.67 31.2443C1323.61 29.8806 1323.28 28.8502 1322.69 28.153C1322.1 27.4558 1321.22 27.1361 1320.05 27.1938C1318.9 27.2505 1317.97 27.702 1317.26 28.5484C1316.58 29.3937 1316.27 30.5409 1316.34 31.9898L1316.74 40.1719L1312.65 40.3733ZM1339.82 39.4201C1338.22 39.4988 1336.79 39.2276 1335.52 38.6066C1334.25 37.9857 1333.23 37.0746 1332.47 35.8733C1331.7 34.6721 1331.28 33.2618 1331.2 31.6425C1331.12 30.0018 1331.39 28.5254 1332.01 27.2134C1332.65 25.9003 1333.56 24.8623 1334.74 24.0994C1335.94 23.3141 1337.37 22.8805 1339.03 22.7987C1340.59 22.7221 1341.98 22.9953 1343.21 23.6184C1344.43 24.2415 1345.41 25.1334 1346.13 26.2941C1346.87 27.4324 1347.27 28.726 1347.34 30.1749C1347.35 30.4093 1347.36 30.6549 1347.35 30.9116C1347.36 31.1673 1347.36 31.4342 1347.35 31.7122L1335.3 32.3056C1335.45 33.5372 1335.92 34.4857 1336.73 35.1511C1337.55 35.8154 1338.51 36.1203 1339.62 36.0657C1340.45 36.0248 1341.14 35.8096 1341.67 35.4201C1342.23 35.0082 1342.63 34.4972 1342.88 33.8869L1347.03 33.6823C1346.79 34.6985 1346.33 35.6394 1345.67 36.505C1345.03 37.3482 1344.2 38.0294 1343.21 38.5486C1342.23 39.0666 1341.1 39.3571 1339.82 39.4201ZM1339.2 26.1226C1338.2 26.1719 1337.33 26.5031 1336.59 27.1162C1335.85 27.708 1335.4 28.5844 1335.24 29.7455L1343.14 29.3568C1343.02 28.3159 1342.6 27.5038 1341.86 26.9205C1341.13 26.3372 1340.24 26.0712 1339.2 26.1226ZM1358.91 38.0955L1357.81 15.7226L1366.09 15.315C1367.88 15.2269 1369.37 15.4523 1370.58 15.9912C1371.78 16.5301 1372.69 17.3074 1373.32 18.3232C1373.94 19.3389 1374.29 20.4967 1374.35 21.7964C1374.41 23.0322 1374.19 24.1858 1373.69 25.2572C1373.19 26.3072 1372.36 27.1807 1371.22 27.8776C1370.08 28.5533 1368.6 28.9362 1366.76 29.0264L1362.58 29.2326L1363 37.8941L1358.91 38.0955ZM1362.41 25.9086L1366.34 25.715C1367.77 25.6447 1368.78 25.2854 1369.37 24.6371C1369.97 23.9664 1370.25 23.0877 1370.2 22.001C1370.14 20.893 1369.78 20.0458 1369.11 19.4594C1368.46 18.8506 1367.42 18.5813 1366 18.6516L1362.07 18.8452L1362.41 25.9086ZM1378.23 37.1443L1377.45 21.2915L1381.09 21.1121L1381.62 24.0656C1382.15 23.0145 1382.89 22.1665 1383.84 21.5217C1384.81 20.8544 1385.96 20.4878 1387.31 20.4217L1387.52 24.7365L1386.37 24.7931C1385.47 24.8372 1384.68 25.015 1383.99 25.3266C1383.3 25.6383 1382.77 26.145 1382.4 26.8467C1382.05 27.5475 1381.91 28.5051 1381.97 29.7196L1382.32 36.9429L1378.23 37.1443ZM1398.34 36.5384C1396.74 36.6171 1395.31 36.346 1394.04 35.725C1392.77 35.104 1391.76 34.1929 1390.99 32.9917C1390.23 31.7905 1389.81 30.3802 1389.73 28.7608C1389.65 27.1201 1389.91 25.6438 1390.53 24.3317C1391.17 23.0187 1392.08 21.9806 1393.26 21.2177C1394.46 20.4324 1395.89 19.9988 1397.56 19.917C1399.11 19.8404 1400.5 20.1136 1401.73 20.7367C1402.96 21.3598 1403.93 22.2517 1404.65 23.4124C1405.39 24.5507 1405.79 25.8444 1405.87 27.2933C1405.88 27.5277 1405.88 27.7732 1405.87 28.03C1405.88 28.2856 1405.88 28.5525 1405.88 28.8306L1393.83 29.4239C1393.97 30.6555 1394.45 31.604 1395.25 32.2694C1396.07 32.9337 1397.04 33.2386 1398.15 33.1841C1398.98 33.1431 1399.66 32.9279 1400.2 32.5384C1400.75 32.1266 1401.15 31.6155 1401.4 31.0053L1405.56 30.8007C1405.31 31.8168 1404.85 32.7577 1404.19 33.6233C1403.55 34.4666 1402.73 35.1478 1401.73 35.6669C1400.75 36.185 1399.62 36.4755 1398.34 36.5384ZM1397.72 23.241C1396.72 23.2903 1395.85 23.6215 1395.11 24.2345C1394.37 24.8263 1393.92 25.7027 1393.77 26.8638L1401.66 26.4751C1401.54 25.4342 1401.12 24.6221 1400.39 24.0388C1399.65 23.4555 1398.76 23.1895 1397.72 23.241ZM1416.29 35.6545C1414.89 35.7237 1413.64 35.5609 1412.55 35.1659C1411.47 34.7496 1410.58 34.1523 1409.9 33.3741C1409.22 32.5959 1408.79 31.6772 1408.61 30.6182L1412.74 30.4151C1412.89 31.0268 1413.26 31.5427 1413.84 31.9628C1414.43 32.3607 1415.18 32.5375 1416.07 32.4935C1416.97 32.4494 1417.61 32.2363 1418 31.8541C1418.41 31.4709 1418.6 31.0449 1418.58 30.5762C1418.54 29.8943 1418.22 29.4509 1417.61 29.2459C1417 29.0196 1416.16 28.8155 1415.08 28.6335C1414.39 28.518 1413.69 28.371 1412.98 28.1925C1412.27 28.014 1411.6 27.7797 1410.99 27.4895C1410.4 27.1769 1409.91 26.7738 1409.52 26.2803C1409.13 25.7654 1408.92 25.1245 1408.88 24.3574C1408.81 22.9511 1409.31 21.7412 1410.37 20.7278C1411.45 19.7134 1413 19.1563 1415.03 19.0567C1416.9 18.9643 1418.42 19.3277 1419.57 20.1467C1420.74 20.9647 1421.47 22.1356 1421.76 23.6592L1417.89 23.8497C1417.6 22.6893 1416.69 22.1469 1415.15 22.2224C1414.39 22.2602 1413.8 22.4387 1413.38 22.758C1412.99 23.0762 1412.81 23.4591 1412.83 23.9065C1412.86 24.3753 1413.18 24.733 1413.81 24.9795C1414.45 25.2261 1415.28 25.4414 1416.31 25.6254C1417.43 25.8266 1418.46 26.0644 1419.39 26.3389C1420.34 26.591 1421.11 27.0124 1421.7 27.6031C1422.28 28.1724 1422.6 29.0217 1422.66 30.151C1422.72 31.1301 1422.51 32.0269 1422.02 32.8416C1421.52 33.6562 1420.79 34.3119 1419.81 34.8086C1418.83 35.3054 1417.66 35.5873 1416.29 35.6545ZM1434.24 34.771C1432.64 34.8497 1431.21 34.5785 1429.94 33.9575C1428.67 33.3366 1427.65 32.4255 1426.89 31.2242C1426.12 30.023 1425.7 28.6127 1425.62 26.9934C1425.54 25.3527 1425.81 23.8763 1426.43 22.5643C1427.07 21.2512 1427.98 20.2132 1429.16 19.4503C1430.36 18.665 1431.79 18.2314 1433.45 18.1496C1435.01 18.073 1436.4 18.3462 1437.62 18.9693C1438.85 19.5924 1439.82 20.4843 1440.54 21.645C1441.28 22.7833 1441.69 24.0769 1441.76 25.5258C1441.77 25.7602 1441.77 26.0058 1441.76 26.2625C1441.78 26.5182 1441.78 26.7851 1441.77 27.0631L1429.72 27.6565C1429.87 28.8881 1430.34 29.8366 1431.14 30.502C1431.97 31.1663 1432.93 31.4712 1434.04 31.4166C1434.87 31.3757 1435.55 31.1605 1436.09 30.771C1436.65 30.3591 1437.05 29.8481 1437.3 29.2378L1441.45 29.0332C1441.2 30.0494 1440.75 30.9903 1440.08 31.8559C1439.44 32.6991 1438.62 33.3803 1437.62 33.8994C1436.64 34.4175 1435.52 34.708 1434.24 34.771ZM1433.61 21.4735C1432.61 21.5228 1431.74 21.854 1431 22.4671C1430.26 23.0589 1429.82 23.9353 1429.66 25.0964L1437.55 24.7077C1437.44 23.6668 1437.01 22.8546 1436.28 22.2714C1435.55 21.6881 1434.66 21.4221 1433.61 21.4735ZM1445.62 33.8262L1444.84 17.9734L1448.45 17.7955L1448.9 20.4645C1449.34 19.5029 1450.01 18.7225 1450.9 18.1234C1451.81 17.5232 1452.89 17.1922 1454.15 17.1303C1456.11 17.0338 1457.66 17.5767 1458.81 18.759C1459.96 19.9413 1460.59 21.7257 1460.71 24.1121L1461.15 33.0613L1457.06 33.2627L1456.64 24.6971C1456.57 23.3334 1456.24 22.303 1455.65 21.6058C1455.06 20.9087 1454.18 20.5889 1453.01 20.6466C1451.86 20.7033 1450.93 21.1548 1450.23 22.0012C1449.54 22.8466 1449.23 23.9937 1449.31 25.4426L1449.71 33.6247L1445.62 33.8262ZM1472.85 32.8698C1471.23 32.9495 1469.78 32.6682 1468.51 32.0259C1467.24 31.3837 1466.21 30.4518 1465.43 29.2303C1464.66 28.0078 1464.24 26.5868 1464.16 24.9675C1464.08 23.3481 1464.36 21.8925 1465 20.6008C1465.67 19.3079 1466.6 18.2795 1467.8 17.5155C1469 16.7515 1470.41 16.3297 1472.03 16.2499C1474.05 16.1502 1475.78 16.599 1477.22 17.5962C1478.66 18.572 1479.61 19.9774 1480.09 21.8123L1475.77 22.0247C1475.52 21.2682 1475.07 20.6925 1474.41 20.2979C1473.77 19.8808 1473.02 19.6933 1472.17 19.7353C1471.04 19.7909 1470.1 20.2642 1469.36 21.1554C1468.61 22.0465 1468.27 23.2485 1468.35 24.7613C1468.42 26.2741 1468.87 27.4373 1469.7 28.2508C1470.54 29.0642 1471.52 29.4432 1472.64 29.3876C1473.5 29.3456 1474.22 29.0963 1474.82 28.6398C1475.44 28.1821 1475.83 27.5539 1476.01 26.755L1480.32 26.5426C1480.03 28.3513 1479.21 29.8331 1477.88 30.988C1476.55 32.1428 1474.87 32.7701 1472.85 32.8698ZM1491.95 31.9293C1490.35 32.008 1488.92 31.7368 1487.65 31.1158C1486.38 30.4948 1485.36 29.5837 1484.6 28.3825C1483.83 27.1813 1483.41 25.771 1483.33 24.1516C1483.25 22.511 1483.52 21.0346 1484.14 19.7226C1484.78 18.4095 1485.69 17.3715 1486.87 16.6086C1488.07 15.8232 1489.5 15.3897 1491.16 15.3078C1492.72 15.2312 1494.11 15.5045 1495.34 16.1276C1496.56 16.7507 1497.54 17.6426 1498.25 18.8033C1498.99 19.9416 1499.4 21.2352 1499.47 22.6841C1499.48 22.9185 1499.48 23.1641 1499.47 23.4208C1499.49 23.6765 1499.49 23.9434 1499.48 24.2214L1487.43 24.8147C1487.58 26.0464 1488.05 26.9949 1488.85 27.6603C1489.68 28.3246 1490.64 28.6295 1491.75 28.5749C1492.58 28.534 1493.27 28.3188 1493.8 27.9293C1494.36 27.5174 1494.76 27.0064 1495.01 26.3961L1499.16 26.1915C1498.91 27.2077 1498.46 28.1485 1497.8 29.0142C1497.15 29.8574 1496.33 30.5386 1495.33 31.0577C1494.36 31.5758 1493.23 31.8663 1491.95 31.9293ZM1491.33 18.6318C1490.32 18.6811 1489.45 19.0123 1488.72 19.6254C1487.98 20.2172 1487.53 21.0936 1487.37 22.2547L1495.27 21.866C1495.15 20.825 1494.73 20.0129 1493.99 19.4296C1493.26 18.8463 1492.37 18.5804 1491.33 18.6318ZM1514.04 30.4568L1508.63 14.8322L1512.69 14.6323L1516 25.9071L1518.63 14.3396L1523.17 14.1161L1526.93 25.3689L1529.15 13.8218L1533.21 13.622L1529.32 29.7045L1525.07 29.9138L1521.1 18.223L1518.3 30.2475L1514.04 30.4568ZM1537.87 10.9252C1537.13 10.962 1536.5 10.7687 1535.99 10.3453C1535.5 9.92096 1535.23 9.36786 1535.2 8.68602C1535.17 8.00418 1535.37 7.43864 1535.82 6.98941C1536.29 6.51782 1536.9 6.26366 1537.64 6.22694C1538.39 6.19022 1539.01 6.38405 1539.5 6.80842C1540.01 7.21044 1540.28 7.75237 1540.31 8.43421C1540.35 9.11605 1540.13 9.69277 1539.66 10.1644C1539.22 10.6349 1538.62 10.8885 1537.87 10.9252ZM1536.73 29.3398L1535.95 13.487L1540.04 13.2855L1540.82 29.1383L1536.73 29.3398ZM1552.15 28.5803C1550.49 28.6621 1549.14 28.3228 1548.1 27.5625C1547.06 26.8021 1546.49 25.3885 1546.38 23.3217L1546.04 16.418L1543.33 16.5518L1543.16 13.1319L1545.88 12.9982L1546.15 8.72371L1549.76 8.54588L1549.97 12.7967L1554.25 12.5858L1554.42 16.0057L1550.14 16.2166L1550.48 23.1522C1550.51 23.9193 1550.7 24.4441 1551.04 24.7266C1551.39 24.9868 1551.97 25.097 1552.78 25.0572L1554.76 24.9596L1554.93 28.4434L1552.15 28.5803ZM1558.54 28.2657L1557.41 5.25356L1561.5 5.05211L1561.97 14.6405C1562.46 13.7407 1563.14 13.0237 1564.01 12.4895C1564.9 11.933 1565.94 11.6259 1567.11 11.5682C1569.07 11.4717 1570.61 12.0151 1571.74 13.1985C1572.89 14.3808 1573.52 16.1652 1573.64 18.5517L1574.08 27.5008L1570.02 27.7007L1569.6 19.1351C1569.53 17.7714 1569.2 16.741 1568.61 16.0438C1568.04 15.3456 1567.17 15.0253 1566 15.083C1564.85 15.1397 1563.91 15.5917 1563.18 16.4392C1562.48 17.2856 1562.16 18.4332 1562.23 19.8821L1562.63 28.0642L1558.54 28.2657ZM1591.09 27.0476C1589.72 27.1148 1588.6 26.9568 1587.7 26.5736C1586.81 26.1692 1586.13 25.6152 1585.66 24.9118C1585.2 24.2083 1584.95 23.4198 1584.91 22.5461C1584.83 21.0759 1585.35 19.8544 1586.46 18.8815C1587.56 17.9086 1589.27 17.3655 1591.57 17.2522L1595.59 17.0539L1595.58 16.6704C1595.52 15.5837 1595.17 14.7999 1594.53 14.3189C1593.89 13.838 1593.11 13.62 1592.19 13.6652C1591.36 13.7061 1590.65 13.9442 1590.05 14.3794C1589.45 14.7934 1589.09 15.3876 1588.98 16.162L1584.99 16.3587C1585.04 15.2029 1585.37 14.1825 1585.99 13.2977C1586.63 12.4118 1587.47 11.7189 1588.51 11.219C1589.56 10.6978 1590.74 10.4047 1592.06 10.3396C1594.32 10.2284 1596.13 10.7054 1597.48 11.7707C1598.84 12.836 1599.56 14.4021 1599.67 16.4689L1600.15 26.2171L1596.66 26.3887L1596.15 23.8506C1595.73 24.726 1595.1 25.4617 1594.28 26.0577C1593.47 26.6526 1592.41 26.9826 1591.09 27.0476ZM1591.86 23.8058C1593.03 23.7481 1593.92 23.32 1594.52 22.5215C1595.14 21.7219 1595.51 20.7532 1595.62 19.6155L1592.14 19.7871C1591.05 19.8406 1590.29 20.0813 1589.84 20.5092C1589.39 20.9158 1589.18 21.4068 1589.2 21.9821C1589.24 22.6 1589.49 23.0679 1589.98 23.3857C1590.46 23.7036 1591.09 23.8436 1591.86 23.8058ZM1618.73 25.3021C1617.07 25.3839 1615.72 25.0446 1614.67 24.2843C1613.63 23.5239 1613.06 22.1103 1612.96 20.0435L1612.62 13.1398L1609.9 13.2736L1609.73 9.85375L1612.45 9.71998L1612.72 5.44552L1616.33 5.26768L1616.54 9.51853L1620.83 9.30765L1620.99 12.7275L1616.71 12.9384L1617.05 19.874C1617.09 20.6411 1617.28 21.1659 1617.61 21.4484C1617.97 21.7087 1618.55 21.8188 1619.36 21.779L1621.34 21.6814L1621.51 25.1652L1618.73 25.3021ZM1630.6 25.1019C1629.24 25.1691 1628.11 25.0111 1627.22 24.6279C1626.32 24.2235 1625.64 23.6695 1625.18 22.9661C1624.72 22.2626 1624.46 21.474 1624.42 20.6004C1624.35 19.1302 1624.87 17.9087 1625.97 16.9358C1627.08 15.9629 1628.78 15.4198 1631.08 15.3065L1635.11 15.1082L1635.09 14.7247C1635.04 13.638 1634.69 12.8542 1634.04 12.3732C1633.4 11.8923 1632.62 11.6743 1631.71 11.7195C1630.87 11.7604 1630.16 11.9985 1629.56 12.4337C1628.96 12.8477 1628.61 13.4419 1628.5 14.2163L1624.5 14.413C1624.55 13.2572 1624.89 12.2368 1625.5 11.352C1626.14 10.4661 1626.99 9.77324 1628.03 9.27332C1629.07 8.75209 1630.25 8.45896 1631.57 8.39391C1633.83 8.28269 1635.64 8.75974 1637 9.82503C1638.35 10.8903 1639.08 12.4564 1639.18 14.5232L1639.66 24.2714L1636.18 24.443L1635.67 21.9049C1635.24 22.7803 1634.61 23.516 1633.79 24.112C1632.99 24.7069 1631.92 25.0369 1630.6 25.1019ZM1631.37 21.8601C1632.54 21.8024 1633.43 21.3743 1634.03 20.5758C1634.66 19.7762 1635.02 18.8075 1635.14 17.6698L1631.65 17.8414C1630.57 17.8949 1629.8 18.1356 1629.35 18.5635C1628.9 18.9701 1628.69 19.4611 1628.72 20.0364C1628.75 20.6543 1629.01 21.1222 1629.49 21.44C1629.98 21.7579 1630.61 21.8979 1631.37 21.8601ZM1644.87 5.65678C1644.12 5.6935 1643.49 5.5002 1642.98 5.07687C1642.49 4.65249 1642.23 4.09939 1642.2 3.41755C1642.16 2.73571 1642.37 2.17017 1642.82 1.72094C1643.28 1.24935 1643.89 0.995192 1644.64 0.95847C1645.38 0.921749 1646 1.11558 1646.49 1.53995C1647 1.94197 1647.28 2.4839 1647.31 3.16574C1647.34 3.84758 1647.13 4.4243 1646.66 4.89589C1646.21 5.36643 1645.61 5.62006 1644.87 5.65678ZM1643.72 24.0713L1642.94 8.21852L1647.04 8.01707L1647.82 23.8699L1643.72 24.0713ZM1652.09 23.6596L1650.95 0.647489L1655.04 0.446045L1656.18 23.4582L1652.09 23.6596ZM1667.98 23.2613C1666.45 23.3369 1665.05 23.0535 1663.78 22.4112C1662.53 21.7678 1661.51 20.8461 1660.72 19.6459C1659.96 18.4234 1659.54 16.9918 1659.46 15.3511C1659.37 13.7104 1659.67 12.2543 1660.33 10.9828C1660.99 9.69002 1661.91 8.66213 1663.09 7.89918C1664.29 7.13518 1665.66 6.71541 1667.2 6.63987C1668.71 6.56538 1670.09 6.8498 1671.34 7.49315C1672.61 8.13544 1673.63 9.06785 1674.39 10.2904C1675.18 11.4905 1675.61 12.911 1675.69 14.5516C1675.77 16.1923 1675.48 17.6591 1674.82 18.9519C1674.18 20.2223 1673.26 21.2396 1672.05 22.0036C1670.85 22.7676 1669.5 23.1868 1667.98 23.2613ZM1667.81 19.7136C1668.87 19.6611 1669.78 19.2213 1670.53 18.3941C1671.28 17.5456 1671.61 16.333 1671.54 14.7562C1671.46 13.1795 1671.01 12.0163 1670.18 11.2668C1669.35 10.4959 1668.42 10.1362 1667.37 10.1876C1666.28 10.2411 1665.37 10.6921 1664.62 11.5406C1663.89 12.3667 1663.56 13.5682 1663.64 15.145C1663.72 16.7217 1664.16 17.896 1664.97 18.668C1665.8 19.4175 1666.74 19.7661 1667.81 19.7136ZM1679.74 22.2979L1678.96 6.44513L1682.6 6.26572L1683.13 9.21923C1683.66 8.16814 1684.4 7.32016 1685.35 6.67529C1686.32 6.00806 1687.47 5.64139 1688.82 5.5753L1689.03 9.89007L1687.88 9.94672C1686.98 9.99079 1686.19 10.1686 1685.5 10.4803C1684.81 10.7919 1684.28 11.2986 1683.91 12.0003C1683.56 12.7011 1683.42 13.6587 1683.48 14.8732L1683.83 22.0965L1679.74 22.2979ZM1699.85 21.692C1698.25 21.7707 1696.82 21.4996 1695.55 20.8786C1694.28 20.2576 1693.27 19.3465 1692.5 18.1453C1691.74 16.9441 1691.32 15.5338 1691.24 13.9144C1691.15 12.2737 1691.42 10.7974 1692.04 9.48535C1692.68 8.17227 1693.59 7.13426 1694.77 6.37131C1695.97 5.586 1697.4 5.15243 1699.07 5.07059C1700.62 4.994 1702.01 5.26725 1703.24 5.89034C1704.47 6.51342 1705.44 7.40531 1706.16 8.56601C1706.9 9.70435 1707.3 10.998 1707.38 12.4469C1707.39 12.6813 1707.39 12.9268 1707.38 13.1836C1707.39 13.4393 1707.39 13.7061 1707.39 13.9842L1695.34 14.5775C1695.48 15.8091 1695.96 16.7576 1696.76 17.423C1697.58 18.0873 1698.55 18.3922 1699.66 18.3377C1700.49 18.2968 1701.17 18.0815 1701.71 17.692C1702.26 17.2802 1702.66 16.7691 1702.91 16.1589L1707.07 15.9543C1706.82 16.9704 1706.36 17.9113 1705.7 18.7769C1705.06 19.6202 1704.24 20.3014 1703.24 20.8205C1702.26 21.3386 1701.13 21.6291 1699.85 21.692ZM1699.23 8.39456C1698.23 8.44388 1697.36 8.77507 1696.62 9.38814C1695.88 9.97991 1695.43 10.8563 1695.28 12.0174L1703.17 11.6287C1703.05 10.5878 1702.63 9.77569 1701.9 9.19239C1701.16 8.6091 1700.27 8.34315 1699.23 8.39456ZM1718.54 20.7719C1717.05 20.8454 1715.7 20.5487 1714.49 19.8819C1713.28 19.2152 1712.31 18.27 1711.56 17.0465C1710.82 15.8229 1710.41 14.4121 1710.33 12.814C1710.25 11.216 1710.52 9.78222 1711.14 8.51281C1711.76 7.22209 1712.64 6.1963 1713.78 5.43545C1714.92 4.65329 1716.23 4.22549 1717.72 4.15205C1718.91 4.09329 1719.97 4.26561 1720.89 4.669C1721.8 5.07239 1722.56 5.66529 1723.15 6.4477L1722.69 -2.88499L1726.78 -3.08644L1727.92 19.9257L1724.27 20.1051L1723.71 17.8579C1723.24 18.5862 1722.59 19.2377 1721.76 19.8124C1720.95 20.386 1719.88 20.7058 1718.54 20.7719ZM1719.23 17.1498C1720.55 17.0847 1721.6 16.5949 1722.39 15.6804C1723.2 14.7435 1723.57 13.5826 1723.5 12.1976C1723.43 10.8126 1722.95 9.70428 1722.05 8.87264C1721.18 8.01864 1720.08 7.62417 1718.76 7.68922C1717.46 7.75322 1716.41 8.243 1715.6 9.15858C1714.79 10.0742 1714.42 11.2244 1714.48 12.6094C1714.55 13.9944 1715.04 15.1134 1715.93 15.9663C1716.83 16.8193 1717.93 17.2138 1719.23 17.1498ZM1745 19.0843L1744.06 0.00342013L1737.54 0.324471L1737.38 -2.96754L1754.55 -3.81266L1754.71 -0.520648L1748.16 -0.198024L1749.1 18.8829L1745 19.0843ZM1763.43 18.5614C1761.83 18.6401 1760.4 18.3689 1759.13 17.7479C1757.86 17.1269 1756.84 16.2158 1756.08 15.0146C1755.32 13.8134 1754.89 12.4031 1754.81 10.7838C1754.73 9.14307 1755 7.66672 1755.62 6.3547C1756.26 5.04162 1757.17 4.00361 1758.35 3.24066C1759.55 2.45535 1760.98 2.02178 1762.65 1.93994C1764.2 1.86335 1765.59 2.1366 1766.82 2.75968C1768.05 3.38277 1769.02 4.27466 1769.74 5.43536C1770.48 6.5737 1770.88 7.86732 1770.95 9.31623C1770.97 9.55062 1770.97 9.79618 1770.96 10.0529C1770.97 10.3086 1770.97 10.5755 1770.97 10.8535L1758.92 11.4468C1759.06 12.6785 1759.54 13.627 1760.34 14.2924C1761.16 14.9567 1762.13 15.2616 1763.23 15.207C1764.07 15.1661 1764.75 14.9509 1765.29 14.5614C1765.84 14.1495 1766.24 13.6385 1766.49 13.0282L1770.65 12.8236C1770.4 13.8398 1769.94 14.7806 1769.28 15.6463C1768.64 16.4895 1767.82 17.1707 1766.82 17.6898C1765.84 18.2079 1764.71 18.4984 1763.43 18.5614ZM1762.81 5.26391C1761.81 5.31322 1760.94 5.64442 1760.2 6.25749C1759.46 6.84926 1759.01 7.72569 1758.85 8.88679L1766.75 8.49806C1766.63 7.45714 1766.21 6.64503 1765.48 6.06174C1764.74 5.47844 1763.85 5.2125 1762.81 5.26391ZM1782.6 17.6177C1780.98 17.6974 1779.53 17.4161 1778.26 16.7738C1776.99 16.1315 1775.96 15.1996 1775.18 13.9782C1774.41 12.7556 1773.99 11.3347 1773.91 9.71533C1773.83 8.09596 1774.11 6.64039 1774.75 5.34862C1775.42 4.0558 1776.35 3.0274 1777.55 2.2634C1778.75 1.49939 1780.16 1.07753 1781.78 0.997787C1783.8 0.898115 1785.53 1.34687 1786.97 2.34405C1788.41 3.31992 1789.36 4.72529 1789.84 6.56016L1785.52 6.77262C1785.27 6.01604 1784.82 5.44041 1784.16 5.04574C1783.52 4.6287 1782.77 4.44117 1781.92 4.48314C1780.79 4.53875 1779.85 5.01211 1779.11 5.90323C1778.36 6.79435 1778.02 7.99633 1778.1 9.50916C1778.17 11.022 1778.62 12.1852 1779.45 12.9986C1780.28 13.8121 1781.26 14.1911 1782.39 14.1354C1783.25 14.0935 1783.97 13.8442 1784.57 13.3876C1785.19 12.93 1785.58 12.3018 1785.76 11.5029L1790.07 11.2904C1789.78 13.0991 1788.96 14.5809 1787.63 15.7358C1786.3 16.8907 1784.62 17.518 1782.6 17.6177ZM1793.98 16.6729L1792.84 -6.33923L1796.93 -6.54067L1797.41 3.04771C1797.9 2.14787 1798.58 1.43089 1799.45 0.896747C1800.34 0.340251 1801.37 0.0331512 1802.54 -0.024554C1804.5 -0.121079 1806.05 0.422347 1807.17 1.60572C1808.32 2.78805 1808.95 4.57244 1809.07 6.95888L1809.51 15.908L1805.45 16.1079L1805.03 7.54228C1804.96 6.1786 1804.63 5.14817 1804.04 4.451C1803.48 3.75277 1802.61 3.43251 1801.43 3.49022C1800.28 3.54687 1799.34 3.99893 1798.62 4.84638C1797.91 5.69279 1797.59 6.84045 1797.66 8.28936L1798.07 16.4714L1793.98 16.6729ZM1828.79 15.3431C1827.15 15.4239 1825.69 15.2182 1824.4 14.7261C1823.12 14.2127 1822.09 13.4518 1821.31 12.4434C1820.53 11.4137 1820.1 10.143 1820 8.6312L1824.32 8.41874C1824.41 9.46071 1824.83 10.3266 1825.57 11.0164C1826.33 11.6839 1827.33 11.9867 1828.59 11.9248C1829.68 11.8713 1830.53 11.5731 1831.14 11.0303C1831.75 10.4661 1832.04 9.74721 1832 8.8736C1831.95 7.95738 1831.63 7.25774 1831.03 6.77469C1830.45 6.29058 1829.68 5.91181 1828.73 5.63836C1827.78 5.36491 1826.76 5.0733 1825.67 4.76353C1823.92 4.25191 1822.56 3.54989 1821.6 2.65747C1820.66 1.76401 1820.15 0.539549 1820.07 -1.0159C1819.99 -2.33592 1820.24 -3.48043 1820.83 -4.44943C1821.45 -5.4408 1822.3 -6.21997 1823.41 -6.78696C1824.51 -7.37525 1825.8 -7.7056 1827.27 -7.77799C1828.76 -7.85144 1830.08 -7.64962 1831.24 -7.17254C1832.42 -6.69651 1833.35 -5.99481 1834.03 -5.06744C1834.74 -4.14113 1835.15 -3.01849 1835.26 -1.69952L1830.88 -1.48392C1830.82 -2.27124 1830.47 -2.94853 1829.85 -3.51576C1829.24 -4.10535 1828.42 -4.37444 1827.37 -4.32303C1826.48 -4.30027 1825.73 -4.03929 1825.14 -3.5401C1824.56 -3.06327 1824.3 -2.38805 1824.34 -1.51444C1824.38 -0.768675 1824.64 -0.183605 1825.13 0.24077C1825.62 0.643839 1826.28 0.974591 1827.1 1.23303C1827.93 1.49146 1828.87 1.76544 1829.93 2.05495C1831.06 2.38392 1832.09 2.78155 1833.03 3.24781C1833.97 3.71408 1834.74 4.35972 1835.34 5.18474C1835.93 5.98846 1836.26 7.05085 1836.33 8.37191C1836.39 9.54383 1836.14 10.6452 1835.59 11.676C1835.05 12.7069 1834.2 13.5601 1833.06 14.2357C1831.92 14.89 1830.5 15.2592 1828.79 15.3431ZM1847.73 14.4103C1846.2 14.4859 1844.8 14.2025 1843.53 13.5602C1842.28 12.9169 1841.26 11.9951 1840.48 10.7949C1839.71 9.57243 1839.29 8.14083 1839.21 6.50015C1839.13 4.85947 1839.42 3.40337 1840.08 2.13187C1840.74 0.83905 1841.66 -0.188834 1842.84 -0.951785C1844.05 -1.71579 1845.41 -2.13556 1846.95 -2.2111C1848.46 -2.28559 1849.84 -2.00116 1851.09 -1.35782C1852.36 -0.715525 1853.38 0.216883 1854.14 1.4394C1854.93 2.63957 1855.36 4.05999 1855.44 5.70067C1855.52 7.34135 1855.23 8.80809 1854.57 10.1009C1853.93 11.3714 1853.01 12.3886 1851.8 13.1526C1850.6 13.9166 1849.25 14.3358 1847.73 14.4103ZM1847.56 10.8626C1848.62 10.8102 1849.53 10.3704 1850.28 9.54315C1851.03 8.69465 1851.37 7.48202 1851.29 5.90526C1851.21 4.3285 1850.76 3.16534 1849.93 2.41579C1849.1 1.64492 1848.17 1.28519 1847.12 1.3366C1846.04 1.39011 1845.12 1.84112 1844.37 2.68962C1843.64 3.51577 1843.32 4.71723 1843.39 6.29398C1843.47 7.87074 1843.91 9.04507 1844.72 9.81699C1845.55 10.5665 1846.49 10.9151 1847.56 10.8626ZM1859.49 13.447L1858.36 -9.56517L1862.45 -9.76661L1863.58 13.2455L1859.49 13.447ZM1873.73 13.1305C1871.74 13.2281 1870.18 12.6857 1869.03 11.5034C1867.91 10.32 1867.28 8.53507 1867.17 6.14863L1866.73 -2.80053L1870.78 -3.0004L1871.21 5.56523C1871.27 6.92891 1871.6 7.95934 1872.19 8.65651C1872.78 9.35369 1873.67 9.6729 1874.87 9.61415C1876 9.55854 1876.9 9.10806 1877.59 8.2627C1878.29 7.41629 1878.61 6.26863 1878.54 4.81972L1878.14 -3.36237L1882.23 -3.56381L1883.01 12.289L1879.4 12.4668L1878.94 9.79781C1878.5 10.7595 1877.82 11.5404 1876.91 12.1405C1876.02 12.7397 1874.96 13.0696 1873.73 13.1305ZM1894.27 11.7344C1892.61 11.8162 1891.26 11.477 1890.22 10.7166C1889.17 9.95621 1888.6 8.54261 1888.5 6.47578L1888.16 -0.427861L1885.44 -0.29409L1885.28 -3.71395L1887.99 -3.84772L1888.26 -8.12217L1891.87 -8.30001L1892.08 -4.04916L1896.37 -4.26005L1896.53 -0.840191L1892.25 -0.629304L1892.59 6.30629C1892.63 7.07336 1892.82 7.59818 1893.15 7.88075C1893.51 8.14096 1894.09 8.25113 1894.9 8.21126L1896.88 8.11369L1897.05 11.5975L1894.27 11.7344ZM1901.96 -7.00261C1901.22 -6.96589 1900.59 -7.15919 1900.08 -7.58252C1899.59 -8.0069 1899.32 -8.56 1899.29 -9.24184C1899.26 -9.92368 1899.46 -10.4892 1899.91 -10.9385C1900.38 -11.41 1900.99 -11.6642 1901.73 -11.7009C1902.48 -11.7376 1903.1 -11.5438 1903.59 -11.1194C1904.1 -10.7174 1904.37 -10.1755 1904.4 -9.49365C1904.44 -8.81181 1904.22 -8.23509 1903.75 -7.7635C1903.31 -7.29296 1902.71 -7.03933 1901.96 -7.00261ZM1900.82 11.4119L1900.04 -4.44087L1904.13 -4.64232L1904.91 11.2105L1900.82 11.4119ZM1916.81 11.0092C1915.27 11.0847 1913.87 10.8014 1912.6 10.1591C1911.35 9.51572 1910.33 8.59397 1909.55 7.3938C1908.78 6.17128 1908.36 4.73968 1908.28 3.099C1908.2 1.45832 1908.49 0.00222991 1909.15 -1.26928C1909.82 -2.56209 1910.74 -3.58998 1911.92 -4.35293C1913.12 -5.11693 1914.49 -5.5367 1916.02 -5.61224C1917.53 -5.68674 1918.91 -5.40231 1920.16 -4.75896C1921.43 -4.11667 1922.45 -3.18426 1923.22 -1.96174C1924 -0.761577 1924.43 0.658844 1924.52 2.29952C1924.6 3.9402 1924.31 5.40695 1923.64 6.69977C1923 7.97022 1922.08 8.98745 1920.88 9.75146C1919.68 10.5155 1918.32 10.9347 1916.81 11.0092ZM1916.63 7.46149C1917.7 7.40903 1918.6 6.96921 1919.35 6.14201C1920.1 5.2935 1920.44 4.08087 1920.36 2.50411C1920.28 0.927358 1919.83 -0.2358 1919 -0.985358C1918.17 -1.75622 1917.24 -2.11595 1916.19 -2.06454C1915.11 -2.01103 1914.19 -1.56003 1913.44 -0.711521C1912.71 0.114628 1912.39 1.31608 1912.47 2.89284C1912.54 4.46959 1912.99 5.64393 1913.79 6.41584C1914.62 7.1654 1915.57 7.51395 1916.63 7.46149ZM1928.56 10.0458L1927.78 -5.80699L1931.39 -5.98482L1931.85 -3.31581C1932.29 -4.27748 1932.96 -5.05786 1933.85 -5.65697C1934.76 -6.25713 1935.84 -6.58816 1937.1 -6.65006C1939.06 -6.74659 1940.61 -6.20369 1941.76 -5.02136C1942.91 -3.83903 1943.54 -2.05465 1943.66 0.331794L1944.1 9.28095L1940.01 9.4824L1939.58 0.916773C1939.52 -0.446908 1939.19 -1.47734 1938.6 -2.17451C1938.01 -2.87169 1937.13 -3.19143 1935.96 -3.13372C1934.81 -3.07706 1933.88 -2.62553 1933.17 -1.77913C1932.49 -0.933768 1932.18 0.213366 1932.25 1.66228L1932.65 9.84436L1928.56 10.0458ZM1954.58 9.14923C1953.17 9.21848 1951.93 9.0556 1950.84 8.66061C1949.75 8.2443 1948.87 7.64704 1948.19 6.86883C1947.51 6.09062 1947.08 5.17198 1946.9 4.1129L1951.02 3.90988C1951.18 4.5215 1951.55 5.0374 1952.12 5.45758C1952.72 5.8554 1953.46 6.03228 1954.36 5.98822C1955.25 5.94415 1955.9 5.73104 1956.28 5.34887C1956.69 4.96566 1956.88 4.53967 1956.86 4.07091C1956.83 3.38907 1956.51 2.94564 1955.9 2.74064C1955.29 2.51433 1954.45 2.31021 1953.37 2.12828C1952.68 2.01271 1951.98 1.86569 1951.26 1.68724C1950.55 1.50879 1949.89 1.27444 1949.28 0.984206C1948.68 0.671614 1948.19 0.268546 1947.81 -0.224998C1947.42 -0.73985 1947.2 -1.38081 1947.17 -2.14788C1947.1 -3.55418 1947.59 -4.76402 1948.65 -5.77742C1949.74 -6.79187 1951.29 -7.34892 1953.31 -7.4486C1955.19 -7.54093 1956.7 -7.17756 1957.85 -6.35851C1959.03 -5.54051 1959.76 -4.36969 1960.04 -2.84604L1956.18 -2.65561C1955.88 -3.81598 1954.97 -4.3584 1953.44 -4.28286C1952.67 -4.24509 1952.08 -4.06656 1951.67 -3.74727C1951.28 -3.42903 1951.1 -3.04618 1951.12 -2.59872C1951.14 -2.12996 1951.47 -1.77229 1952.1 -1.52572C1952.73 -1.27914 1953.56 -1.06385 1954.6 -0.879826C1955.72 -0.678693 1956.75 -0.440878 1957.68 -0.166381C1958.63 0.0857604 1959.4 0.507151 1959.98 1.09779C1960.57 1.66712 1960.88 2.51644 1960.94 3.64574C1961.01 4.62483 1960.8 5.52168 1960.3 6.33629C1959.81 7.1509 1959.07 7.80659 1958.09 8.30336C1957.11 8.80013 1955.94 9.08209 1954.58 9.14923Z" fill="black"/>
</g>
<defs>
<clipPath id="clip0_2195_9125">
<rect width="1284.67" height="60.7747" fill="white" transform="translate(-2.85156 64.0996) rotate(-2.81898)"/>
</clipPath>
</defs>
</svg>
