<svg width="2252" height="1219" viewBox="0 0 2252 1219" fill="none" xmlns="http://www.w3.org/2000/svg">
<path d="M493.894 561.51C488.528 535.949 461.953 520.396 438.483 531.855C403.091 549.135 370.978 573.119 349.869 605.543C319.97 651.468 306.688 706.242 312.231 760.761C317.774 815.28 341.808 866.261 380.338 905.229C418.867 944.197 469.573 968.806 524.026 974.965C578.479 981.124 633.4 968.463 679.66 939.086C725.921 909.708 760.734 865.384 778.315 813.48C795.895 761.577 789.939 711.068 771.053 659.625C759.666 628.607 737.833 597.241 715.704 571.726C696.487 549.567 662.449 556.941 650.203 583.594C640.727 604.22 649.594 628.666 660.451 648.601C667.189 660.974 671.655 675.154 677.167 690.169C687.743 718.977 688.141 750.537 678.296 779.603C668.451 808.669 648.956 833.49 623.05 849.942C597.144 866.393 566.388 873.483 535.895 870.034C505.401 866.585 477.006 852.804 455.429 830.982C433.853 809.16 420.394 780.611 417.29 750.08C414.186 719.549 421.623 688.876 438.367 663.158C443.787 654.832 448.455 646.936 453.694 640.19C471.78 616.9 499.952 590.368 493.894 561.51Z" fill="#D9D9D9"/>
<path d="M493.894 561.51C488.528 535.949 461.953 520.396 438.483 531.855C403.091 549.135 370.978 573.119 349.869 605.543C319.97 651.468 306.688 706.242 312.231 760.761C317.774 815.28 341.808 866.261 380.338 905.229C418.867 944.197 469.573 968.806 524.026 974.965C578.479 981.124 633.4 968.463 679.66 939.086C725.921 909.708 760.734 865.384 778.315 813.48C795.895 761.577 789.939 711.068 771.053 659.625C759.666 628.607 737.833 597.241 715.704 571.726C696.487 549.567 662.449 556.941 650.203 583.594C640.727 604.22 649.594 628.666 660.451 648.601C667.189 660.974 671.655 675.154 677.167 690.169C687.743 718.977 688.141 750.537 678.296 779.603C668.451 808.669 648.956 833.49 623.05 849.942C597.144 866.393 566.388 873.483 535.895 870.034C505.401 866.585 477.006 852.804 455.429 830.982C433.853 809.16 420.394 780.611 417.29 750.08C414.186 719.549 421.623 688.876 438.367 663.158C443.787 654.832 448.455 646.936 453.694 640.19C471.78 616.9 499.952 590.368 493.894 561.51Z" fill="#02A9EA"/>
<path d="M779.613 657.981C784.516 683.635 810.804 699.666 834.478 688.634C870.177 671.998 902.719 648.6 924.411 616.563C955.137 571.187 969.408 516.662 964.853 462.051C960.298 407.441 937.191 356.034 899.373 316.374C861.555 276.715 811.303 251.192 756.971 244.049C702.638 236.905 647.497 248.57 600.712 277.105C553.928 305.64 518.317 349.327 499.8 400.904C481.283 452.48 486.324 503.088 504.275 554.865C515.099 586.084 536.361 617.841 558.024 643.752C576.837 666.255 611.003 659.498 623.729 633.072C633.577 612.62 625.154 588.018 614.66 567.89C608.147 555.397 603.938 541.138 598.699 526.026C588.646 497.031 588.819 465.469 599.189 436.586C609.558 407.703 629.5 383.239 655.699 367.259C681.899 351.279 712.778 344.747 743.204 348.747C773.63 352.748 801.771 367.041 822.949 389.25C844.128 411.459 857.067 440.247 859.618 470.829C862.169 501.411 854.177 531.945 836.971 557.356C831.401 565.582 826.591 573.392 821.231 580.042C802.726 603 774.078 629.018 779.613 657.981Z" fill="#D9D9D9"/>
<path d="M779.613 657.981C784.516 683.635 810.804 699.666 834.478 688.634C870.177 671.998 902.719 648.6 924.411 616.563C955.137 571.187 969.408 516.662 964.853 462.051C960.298 407.441 937.191 356.034 899.373 316.374C861.555 276.715 811.303 251.192 756.971 244.049C702.638 236.905 647.497 248.57 600.712 277.105C553.928 305.64 518.317 349.327 499.8 400.904C481.283 452.48 486.324 503.088 504.275 554.865C515.099 586.084 536.361 617.841 558.024 643.752C576.837 666.255 611.003 659.498 623.729 633.072C633.577 612.62 625.154 588.018 614.66 567.89C608.147 555.397 603.938 541.138 598.699 526.026C588.646 497.031 588.819 465.469 599.189 436.586C609.558 407.703 629.5 383.239 655.699 367.259C681.899 351.279 712.778 344.747 743.204 348.747C773.63 352.748 801.771 367.041 822.949 389.25C844.128 411.459 857.067 440.247 859.618 470.829C862.169 501.411 854.177 531.945 836.971 557.356C831.401 565.582 826.591 573.392 821.231 580.042C802.726 603 774.078 629.018 779.613 657.981Z" fill="#4D20FF"/>
<path d="M1140.38 719.643C1126.98 719.643 1114.98 717.043 1104.38 711.843C1093.98 706.643 1085.88 698.743 1080.08 688.143C1074.28 677.343 1071.38 663.643 1071.38 647.043V555.843H1118.18V640.143C1118.18 653.543 1120.98 663.443 1126.58 669.843C1132.38 676.043 1140.48 679.143 1150.88 679.143C1158.08 679.143 1164.48 677.643 1170.08 674.643C1175.68 671.443 1180.08 666.643 1183.28 660.243C1186.48 653.643 1188.08 645.443 1188.08 635.643V555.843H1234.88V717.243H1190.48V672.843L1198.58 685.743C1193.18 696.943 1185.18 705.443 1174.58 711.243C1164.18 716.843 1152.78 719.643 1140.38 719.643ZM1381.14 719.643C1367.54 719.643 1355.64 716.643 1345.44 710.643C1335.24 704.643 1327.24 695.543 1321.44 683.343C1315.84 670.943 1313.04 655.343 1313.04 636.543C1313.04 617.543 1315.74 601.943 1321.14 589.743C1326.54 577.543 1334.34 568.443 1344.54 562.443C1354.74 556.443 1366.94 553.443 1381.14 553.443C1396.34 553.443 1409.94 556.943 1421.94 563.943C1434.14 570.743 1443.74 580.343 1450.74 592.743C1457.94 605.143 1461.54 619.743 1461.54 636.543C1461.54 653.543 1457.94 668.243 1450.74 680.643C1443.74 693.043 1434.14 702.643 1421.94 709.443C1409.94 716.243 1396.34 719.643 1381.14 719.643ZM1285.74 775.443V555.843H1330.44V588.843L1329.54 636.843L1332.54 684.543V775.443H1285.74ZM1373.04 681.243C1380.84 681.243 1387.74 679.443 1393.74 675.843C1399.94 672.243 1404.84 667.143 1408.44 660.543C1412.24 653.743 1414.14 645.743 1414.14 636.543C1414.14 627.143 1412.24 619.143 1408.44 612.543C1404.84 605.943 1399.94 600.843 1393.74 597.243C1387.74 593.643 1380.84 591.843 1373.04 591.843C1365.24 591.843 1358.24 593.643 1352.04 597.243C1345.84 600.843 1340.94 605.943 1337.34 612.543C1333.74 619.143 1331.94 627.143 1331.94 636.543C1331.94 645.743 1333.74 653.743 1337.34 660.543C1340.94 667.143 1345.84 672.243 1352.04 675.843C1358.24 679.443 1365.24 681.243 1373.04 681.243ZM1554.67 719.643C1540.87 719.643 1527.57 718.043 1514.77 714.843C1502.17 711.443 1492.17 707.243 1484.77 702.243L1500.37 668.643C1507.77 673.243 1516.47 677.043 1526.47 680.043C1536.67 682.843 1546.67 684.243 1556.47 684.243C1567.27 684.243 1574.87 682.943 1579.27 680.343C1583.87 677.743 1586.17 674.143 1586.17 669.543C1586.17 665.743 1584.37 662.943 1580.77 661.143C1577.37 659.143 1572.77 657.643 1566.97 656.643C1561.17 655.643 1554.77 654.643 1547.77 653.643C1540.97 652.643 1534.07 651.343 1527.07 649.743C1520.07 647.943 1513.67 645.343 1507.87 641.943C1502.07 638.543 1497.37 633.943 1493.77 628.143C1490.37 622.343 1488.67 614.843 1488.67 605.643C1488.67 595.443 1491.57 586.443 1497.37 578.643C1503.37 570.843 1511.97 564.743 1523.17 560.343C1534.37 555.743 1547.77 553.443 1563.37 553.443C1574.37 553.443 1585.57 554.643 1596.97 557.043C1608.37 559.443 1617.87 562.943 1625.47 567.543L1609.87 600.843C1602.07 596.243 1594.17 593.143 1586.17 591.543C1578.37 589.743 1570.77 588.843 1563.37 588.843C1552.97 588.843 1545.37 590.243 1540.57 593.043C1535.77 595.843 1533.37 599.443 1533.37 603.843C1533.37 607.843 1535.07 610.843 1538.47 612.843C1542.07 614.843 1546.77 616.443 1552.57 617.643C1558.37 618.843 1564.67 619.943 1571.47 620.943C1578.47 621.743 1585.47 623.043 1592.47 624.843C1599.47 626.643 1605.77 629.243 1611.37 632.643C1617.17 635.843 1621.87 640.343 1625.47 646.143C1629.07 651.743 1630.87 659.143 1630.87 668.343C1630.87 678.343 1627.87 687.243 1621.87 695.043C1615.87 702.643 1607.17 708.643 1595.77 713.043C1584.57 717.443 1570.87 719.643 1554.67 719.643ZM1747.34 719.643C1728.94 719.643 1712.74 716.043 1698.74 708.843C1684.94 701.643 1674.24 691.843 1666.64 679.443C1659.04 666.843 1655.24 652.543 1655.24 636.543C1655.24 620.343 1658.94 606.043 1666.34 593.643C1673.94 581.043 1684.24 571.243 1697.24 564.243C1710.24 557.043 1724.94 553.443 1741.34 553.443C1757.14 553.443 1771.34 556.843 1783.94 563.643C1796.74 570.243 1806.84 579.843 1814.24 592.443C1821.64 604.843 1825.34 619.743 1825.34 637.143C1825.34 638.943 1825.24 641.043 1825.04 643.443C1824.84 645.643 1824.64 647.743 1824.44 649.743H1693.34V622.443H1799.84L1781.84 630.543C1781.84 622.143 1780.14 614.843 1776.74 608.643C1773.34 602.443 1768.64 597.643 1762.64 594.243C1756.64 590.643 1749.64 588.843 1741.64 588.843C1733.64 588.843 1726.54 590.643 1720.34 594.243C1714.34 597.643 1709.64 602.543 1706.24 608.943C1702.84 615.143 1701.14 622.543 1701.14 631.143V638.343C1701.14 647.143 1703.04 654.943 1706.84 661.743C1710.84 668.343 1716.34 673.443 1723.34 677.043C1730.54 680.443 1738.94 682.143 1748.54 682.143C1757.14 682.143 1764.64 680.843 1771.04 678.243C1777.64 675.643 1783.64 671.743 1789.04 666.543L1813.94 693.543C1806.54 701.943 1797.24 708.443 1786.04 713.043C1774.84 717.443 1761.94 719.643 1747.34 719.643ZM1864 717.243V494.643H1910.8V717.243H1864Z" fill="#FFFEFF"/>
</svg>
