<svg width="3767" height="1953" viewBox="0 0 3767 1953" fill="none" xmlns="http://www.w3.org/2000/svg">
<g clip-path="url(#clip0_2994_4213)">
<path d="M365.785 881.023C355.053 829.902 301.904 798.796 254.965 821.714C184.181 856.273 119.955 904.241 77.7374 969.089C17.9401 1060.94 -8.62331 1170.49 2.4624 1279.53C13.5481 1388.57 61.6152 1490.53 138.674 1568.46C215.734 1646.4 317.144 1695.62 426.049 1707.94C534.954 1720.26 644.796 1694.93 737.316 1636.18C829.837 1577.42 899.464 1488.77 934.624 1384.97C969.785 1281.16 957.872 1180.14 920.102 1077.25C897.328 1015.22 853.661 952.485 809.404 901.454C770.969 857.138 702.893 871.886 678.403 925.191C659.45 966.444 677.185 1015.34 698.898 1055.21C712.374 1079.95 721.306 1108.31 732.33 1138.34C753.482 1195.96 754.279 1259.08 734.589 1317.21C714.899 1375.34 675.908 1424.99 624.096 1457.89C572.285 1490.79 510.774 1504.97 449.787 1498.08C388.8 1491.18 332.01 1463.61 288.857 1419.97C245.704 1376.33 218.786 1319.23 212.578 1258.17C206.37 1197.1 221.246 1135.76 254.732 1084.32C265.573 1067.67 274.908 1051.88 285.386 1038.38C321.558 991.805 377.901 938.74 365.785 881.023Z" fill="#D9D9D9"/>
<path d="M365.785 881.023C355.053 829.902 301.904 798.796 254.965 821.714C184.181 856.273 119.955 904.241 77.7374 969.089C17.9401 1060.94 -8.62331 1170.49 2.4624 1279.53C13.5481 1388.57 61.6152 1490.53 138.674 1568.46C215.734 1646.4 317.144 1695.62 426.049 1707.94C534.954 1720.26 644.796 1694.93 737.316 1636.18C829.837 1577.42 899.464 1488.77 934.624 1384.97C969.785 1281.16 957.872 1180.14 920.102 1077.25C897.328 1015.22 853.661 952.485 809.404 901.454C770.969 857.138 702.893 871.886 678.403 925.191C659.45 966.444 677.185 1015.34 698.898 1055.21C712.374 1079.95 721.306 1108.31 732.33 1138.34C753.482 1195.96 754.279 1259.08 734.589 1317.21C714.899 1375.34 675.908 1424.99 624.096 1457.89C572.285 1490.79 510.774 1504.97 449.787 1498.08C388.8 1491.18 332.01 1463.61 288.857 1419.97C245.704 1376.33 218.786 1319.23 212.578 1258.17C206.37 1197.1 221.246 1135.76 254.732 1084.32C265.573 1067.67 274.908 1051.88 285.386 1038.38C321.558 991.805 377.901 938.74 365.785 881.023Z" fill="#02A9EA"/>
<path d="M937.221 1073.97C947.026 1125.27 999.603 1157.34 1046.95 1135.27C1118.35 1102 1183.43 1055.2 1226.82 991.13C1288.27 900.377 1316.81 791.327 1307.7 682.105C1298.59 572.883 1252.37 470.068 1176.74 390.75C1101.1 311.431 1000.6 260.385 891.936 246.097C783.272 231.809 672.99 255.139 579.421 312.21C485.852 369.281 414.632 456.654 377.598 559.809C340.564 662.963 350.646 764.179 386.548 867.733C408.195 930.172 450.719 993.685 494.045 1045.51C531.671 1090.51 600.003 1077 625.454 1024.15C645.151 983.244 628.304 934.039 607.316 893.783C594.29 868.797 585.873 840.28 575.394 810.055C555.289 752.065 555.635 688.941 576.374 631.174C597.113 573.408 636.997 524.479 689.395 492.519C741.794 460.559 803.552 447.495 864.404 455.496C925.256 463.497 981.537 492.083 1023.89 536.501C1066.25 580.92 1092.13 638.496 1097.23 699.66C1102.33 760.824 1086.35 821.893 1051.94 872.714C1040.8 889.167 1031.18 904.788 1020.46 918.088C983.447 964.004 926.152 1016.04 937.221 1073.97Z" fill="#D9D9D9"/>
<path d="M937.221 1073.97C947.026 1125.27 999.603 1157.34 1046.95 1135.27C1118.35 1102 1183.43 1055.2 1226.82 991.13C1288.27 900.377 1316.81 791.327 1307.7 682.105C1298.59 572.883 1252.37 470.068 1176.74 390.75C1101.1 311.431 1000.6 260.385 891.936 246.097C783.272 231.809 672.99 255.139 579.421 312.21C485.852 369.281 414.632 456.654 377.598 559.809C340.564 662.963 350.646 764.179 386.548 867.733C408.195 930.172 450.719 993.685 494.045 1045.51C531.671 1090.51 600.003 1077 625.454 1024.15C645.151 983.244 628.304 934.039 607.316 893.783C594.29 868.797 585.873 840.28 575.394 810.055C555.289 752.065 555.635 688.941 576.374 631.174C597.113 573.408 636.997 524.479 689.395 492.519C741.794 460.559 803.552 447.495 864.404 455.496C925.256 463.497 981.537 492.083 1023.89 536.501C1066.25 580.92 1092.13 638.496 1097.23 699.66C1102.33 760.824 1086.35 821.893 1051.94 872.714C1040.8 889.167 1031.18 904.788 1020.46 918.088C983.447 964.004 926.152 1016.04 937.221 1073.97Z" fill="#4D20FF"/>
<path d="M1633.56 1269.39C1597.83 1269.39 1565.83 1262.46 1537.56 1248.59C1509.83 1234.72 1488.23 1213.66 1472.76 1185.39C1457.29 1156.59 1449.56 1120.06 1449.56 1075.79V832.59H1574.36V1057.39C1574.36 1093.12 1581.83 1119.52 1596.76 1136.59C1612.23 1153.12 1633.83 1161.39 1661.56 1161.39C1680.76 1161.39 1697.83 1157.39 1712.76 1149.39C1727.69 1140.86 1739.43 1128.06 1747.96 1110.99C1756.49 1093.39 1760.76 1071.52 1760.76 1045.39V832.59H1885.56V1262.99H1767.16V1144.59L1788.76 1178.99C1774.36 1208.86 1753.03 1231.52 1724.76 1246.99C1697.03 1261.92 1666.63 1269.39 1633.56 1269.39ZM2275.58 1269.39C2239.31 1269.39 2207.58 1261.39 2180.38 1245.39C2153.18 1229.39 2131.85 1205.12 2116.38 1172.59C2101.45 1139.52 2093.98 1097.92 2093.98 1047.79C2093.98 997.124 2101.18 955.524 2115.58 922.99C2129.98 890.457 2150.78 866.19 2177.98 850.19C2205.18 834.19 2237.71 826.19 2275.58 826.19C2316.11 826.19 2352.38 835.524 2384.38 854.19C2416.91 872.324 2442.51 897.924 2461.18 930.99C2480.38 964.057 2489.98 1002.99 2489.98 1047.79C2489.98 1093.12 2480.38 1132.32 2461.18 1165.39C2442.51 1198.46 2416.91 1224.06 2384.38 1242.19C2352.38 1260.32 2316.11 1269.39 2275.58 1269.39ZM2021.18 1418.19V832.59H2140.38V920.59L2137.98 1048.59L2145.98 1175.79V1418.19H2021.18ZM2253.98 1166.99C2274.78 1166.99 2293.18 1162.19 2309.18 1152.59C2325.71 1142.99 2338.78 1129.39 2348.38 1111.79C2358.51 1093.66 2363.58 1072.32 2363.58 1047.79C2363.58 1022.72 2358.51 1001.39 2348.38 983.79C2338.78 966.19 2325.71 952.59 2309.18 942.99C2293.18 933.39 2274.78 928.59 2253.98 928.59C2233.18 928.59 2214.51 933.39 2197.98 942.99C2181.45 952.59 2168.38 966.19 2158.78 983.79C2149.18 1001.39 2144.38 1022.72 2144.38 1047.79C2144.38 1072.32 2149.18 1093.66 2158.78 1111.79C2168.38 1129.39 2181.45 1142.99 2197.98 1152.59C2214.51 1162.19 2233.18 1166.99 2253.98 1166.99ZM2738.32 1269.39C2701.52 1269.39 2666.06 1265.12 2631.92 1256.59C2598.32 1247.52 2571.66 1236.32 2551.92 1222.99L2593.52 1133.39C2613.26 1145.66 2636.46 1155.79 2663.12 1163.79C2690.32 1171.26 2716.99 1174.99 2743.12 1174.99C2771.92 1174.99 2792.19 1171.52 2803.92 1164.59C2816.19 1157.66 2822.32 1148.06 2822.32 1135.79C2822.32 1125.66 2817.52 1118.19 2807.92 1113.39C2798.86 1108.06 2786.59 1104.06 2771.12 1101.39C2755.66 1098.72 2738.59 1096.06 2719.92 1093.39C2701.79 1090.72 2683.39 1087.26 2664.72 1082.99C2646.06 1078.19 2628.99 1071.26 2613.52 1062.19C2598.06 1053.12 2585.52 1040.86 2575.92 1025.39C2566.86 1009.92 2562.32 989.924 2562.32 965.39C2562.32 938.19 2570.06 914.19 2585.52 893.39C2601.52 872.59 2624.46 856.324 2654.32 844.59C2684.19 832.324 2719.92 826.19 2761.52 826.19C2790.86 826.19 2820.72 829.39 2851.12 835.79C2881.52 842.19 2906.86 851.524 2927.12 863.79L2885.52 952.59C2864.72 940.324 2843.66 932.057 2822.32 927.79C2801.52 922.99 2781.26 920.59 2761.52 920.59C2733.79 920.59 2713.52 924.324 2700.72 931.79C2687.92 939.257 2681.52 948.857 2681.52 960.59C2681.52 971.257 2686.06 979.257 2695.12 984.59C2704.72 989.924 2717.26 994.19 2732.72 997.39C2748.19 1000.59 2764.99 1003.52 2783.12 1006.19C2801.79 1008.32 2820.46 1011.79 2839.12 1016.59C2857.79 1021.39 2874.59 1028.32 2889.52 1037.39C2904.99 1045.92 2917.52 1057.92 2927.12 1073.39C2936.72 1088.32 2941.52 1108.06 2941.52 1132.59C2941.52 1159.26 2933.52 1182.99 2917.52 1203.79C2901.52 1224.06 2878.32 1240.06 2847.92 1251.79C2818.06 1263.52 2781.52 1269.39 2738.32 1269.39ZM3252.12 1269.39C3203.06 1269.39 3159.86 1259.79 3122.52 1240.59C3085.72 1221.39 3057.19 1195.26 3036.92 1162.19C3016.66 1128.59 3006.52 1090.46 3006.52 1047.79C3006.52 1004.59 3016.39 966.457 3036.12 933.39C3056.39 899.79 3083.86 873.657 3118.52 854.99C3153.19 835.79 3192.39 826.19 3236.12 826.19C3278.26 826.19 3316.12 835.257 3349.72 853.39C3383.86 870.99 3410.79 896.59 3430.52 930.19C3450.26 963.257 3460.12 1002.99 3460.12 1049.39C3460.12 1054.19 3459.86 1059.79 3459.32 1066.19C3458.79 1072.06 3458.26 1077.66 3457.72 1082.99H3108.12V1010.19H3392.12L3344.12 1031.79C3344.12 1009.39 3339.59 989.924 3330.52 973.39C3321.46 956.857 3308.92 944.057 3292.92 934.99C3276.92 925.39 3258.26 920.59 3236.92 920.59C3215.59 920.59 3196.66 925.39 3180.12 934.99C3164.12 944.057 3151.59 957.124 3142.52 974.19C3133.46 990.724 3128.92 1010.46 3128.92 1033.39V1052.59C3128.92 1076.06 3133.99 1096.86 3144.12 1114.99C3154.79 1132.59 3169.46 1146.19 3188.12 1155.79C3207.32 1164.86 3229.72 1169.39 3255.32 1169.39C3278.26 1169.39 3298.26 1165.92 3315.32 1158.99C3332.92 1152.06 3348.92 1141.66 3363.32 1127.79L3429.72 1199.79C3409.99 1222.19 3385.19 1239.52 3355.32 1251.79C3325.46 1263.52 3291.06 1269.39 3252.12 1269.39ZM3563.21 1262.99V669.39H3688.01V1262.99H3563.21Z" fill="#FFFEFF"/>
</g>
<defs>
<clipPath id="clip0_2994_4213">
<rect width="3766.36" height="1952.98" fill="white"/>
</clipPath>
</defs>
</svg>
