<svg width="72" height="72" viewBox="0 0 72 72" fill="none" xmlns="http://www.w3.org/2000/svg">
<path d="M42.0164 21.0006C41.9881 21.0036 41.96 21.0089 41.9326 21.0165L39.9211 21.5486C39.7917 21.5829 39.6815 21.6664 39.6146 21.7808C39.5477 21.8952 39.5297 22.0312 39.5645 22.1587C39.5993 22.2862 39.684 22.3949 39.8001 22.4608C39.9161 22.5267 40.054 22.5445 40.1834 22.5102L41.0056 22.2915C37.4667 28.0505 29.4498 35.0188 21.4066 36.59C21.2753 36.6158 21.1596 36.6919 21.0852 36.8016C21.0108 36.9114 20.9836 37.0458 21.0097 37.1753C21.0358 37.3048 21.113 37.4188 21.2243 37.4922C21.3356 37.5655 21.472 37.5923 21.6034 37.5666C30.0873 35.9088 38.2011 28.8073 41.8883 22.7738L42.1122 23.6032C42.1467 23.7307 42.2312 23.8395 42.3471 23.9056C42.4045 23.9383 42.4678 23.9596 42.5335 23.9682C42.5993 23.9768 42.666 23.9726 42.7301 23.9557C42.7942 23.9389 42.8542 23.9097 42.9068 23.87C42.9595 23.8303 43.0037 23.7807 43.0369 23.7242C43.0701 23.6676 43.0917 23.6051 43.1004 23.5404C43.1091 23.4756 43.1048 23.4097 43.0877 23.3466L42.55 21.3676C42.5212 21.2628 42.4583 21.1702 42.3711 21.1039C42.2838 21.0377 42.177 21.0014 42.0668 21.0006C42.05 20.9998 42.0332 20.9998 42.0164 21.0006ZM40.4164 28.0435C40.2826 28.0435 40.1544 28.0959 40.0598 28.1891C39.9652 28.2824 39.912 28.4089 39.912 28.5407V37.6104C40.2384 37.4699 40.5757 37.3558 40.9208 37.2693V29.038H42.9384V35.0048C43.206 35.0048 43.4626 35.1096 43.6517 35.2961C43.8409 35.4826 43.9472 35.7356 43.9472 35.9993V28.5407C43.9472 28.4089 43.8941 28.2824 43.7995 28.1891C43.7049 28.0959 43.5766 28.0435 43.4428 28.0435H40.4164ZM34.3636 34.0064V34.0104C34.2299 34.0104 34.1016 34.0628 34.007 34.156C33.9124 34.2493 33.8592 34.3757 33.8592 34.5076V42.9607C33.8591 42.8612 33.874 42.7623 33.9036 42.6673C33.924 42.6042 33.9507 42.5432 33.9833 42.4853C34.0699 42.3284 34.1978 42.1974 34.3534 42.1061C34.5091 42.0148 34.6869 41.9664 34.868 41.9662V35.0088H36.8856V40.2139C37.1671 39.7445 37.504 39.3119 37.8944 38.932V34.5136C37.8944 34.3817 37.8413 34.2552 37.7467 34.162C37.6521 34.0687 37.5238 34.0163 37.39 34.0163L34.3636 34.0064ZM41.9296 35.9993V38.0111C40.6388 38.1296 39.4306 38.6891 38.5141 39.593C37.5976 40.4968 37.0305 41.6881 36.9109 42.9607H34.868V43.9551H36.9109C37.0309 45.2273 37.5982 46.4181 38.5147 47.3216C39.4312 48.225 40.6391 48.7843 41.9296 48.9027V50.9165H42.9384V48.9027C44.2287 48.7841 45.4365 48.2247 46.3527 47.3213C47.269 46.4178 47.8362 45.2272 47.9562 43.9551H50V42.9607H47.9552C47.8356 41.6883 47.2686 40.4971 46.3523 39.5933C45.436 38.6894 44.228 38.1298 42.9374 38.0111V35.9993H41.9296ZM28.3108 38.0718C28.1771 38.0718 28.0488 38.1242 27.9542 38.2174C27.8596 38.3107 27.8064 38.4372 27.8064 38.569V50.5028C27.8064 50.6346 27.8596 50.7611 27.9542 50.8544C28.0488 50.9476 28.1771 51 28.3108 51H31.3372C31.471 51 31.5993 50.9476 31.6939 50.8544C31.7885 50.7611 31.8416 50.6346 31.8416 50.5028V38.569C31.8416 38.4372 31.7885 38.3107 31.6939 38.2174C31.5993 38.1242 31.471 38.0718 31.3372 38.0718H28.3108ZM41.9296 39.0315V40.0279C41.1794 40.1359 40.4846 40.4796 39.9485 41.008C39.4123 41.5363 39.0634 42.2212 38.9537 42.9607H37.9449C38.0558 41.9563 38.5112 41.0193 39.2358 40.3048C39.9604 39.5903 40.9108 39.1411 41.9296 39.0315ZM42.9384 39.0315C43.9571 39.1413 44.9072 39.5906 45.6316 40.3051C46.356 41.0196 46.8113 41.9564 46.9222 42.9607H45.9134C45.8038 42.221 45.455 41.5359 44.9188 41.0074C44.3826 40.4788 43.6877 40.1349 42.9374 40.0269L42.9384 39.0315ZM28.8152 39.0663H30.8328V50.0055H28.8152V39.0663ZM22.2581 40.0608C22.1243 40.0608 21.996 40.1131 21.9014 40.2064C21.8068 40.2996 21.7537 40.4261 21.7537 40.558V50.5028C21.7537 50.6346 21.8068 50.7611 21.9014 50.8544C21.996 50.9476 22.1243 51 22.2581 51H25.2845C25.4182 51 25.5465 50.9476 25.6411 50.8544C25.7357 50.7611 25.7889 50.6346 25.7889 50.5028V40.558C25.7889 40.4261 25.7357 40.2996 25.6411 40.2064C25.5465 40.1131 25.4182 40.0608 25.2845 40.0608H22.2581ZM41.9236 41.0204H41.9296V42.0577C41.7192 42.1326 41.528 42.2524 41.3699 42.4085C41.2117 42.5646 41.0904 42.7531 41.0146 42.9607H39.9625C40.0595 42.4829 40.2973 42.044 40.6461 41.6989C40.995 41.3538 41.4393 41.1178 41.9236 41.0204ZM42.9384 41.0204C43.4236 41.1169 43.869 41.3525 44.2188 41.6977C44.5686 42.0429 44.8072 42.4823 44.9046 42.9607H43.8524C43.7767 42.7532 43.6555 42.5647 43.4976 42.4087C43.3396 42.2526 43.1487 42.1328 42.9384 42.0577V41.0204ZM22.7625 41.0552H24.7801V50.0055H22.7625V41.0552ZM33.8592 43.9551V50.4152C33.8592 50.5471 33.9124 50.6736 34.007 50.7668C34.1016 50.8601 34.2299 50.9125 34.3636 50.9125L37.39 50.9025C37.5238 50.9025 37.6521 50.8502 37.7467 50.7569C37.8413 50.6637 37.8944 50.5372 37.8944 50.4053V47.9768C37.5036 47.5937 37.1646 47.1625 36.8856 46.6939V49.911H34.868V44.9466C34.6012 44.9466 34.3452 44.8424 34.1561 44.6568C33.9671 44.4711 33.8603 44.2182 33.8592 43.9551ZM37.9449 43.9551H38.9537C39.0635 44.6947 39.4124 45.3796 39.9486 45.9081C40.4847 46.4366 41.1794 46.7805 41.9296 46.8888V47.8833C40.9109 47.7738 39.9607 47.3247 39.2361 46.6104C38.5115 45.8961 38.056 44.9593 37.9449 43.9551ZM39.9625 43.9551H41.0146C41.168 44.3738 41.5039 44.706 41.9296 44.8561V45.8934C41.4445 45.7972 40.9991 45.562 40.6491 45.2171C40.2991 44.8723 40.0603 44.4333 39.9625 43.9551ZM43.8524 43.9551H44.9046C44.8069 44.4335 44.5682 44.8727 44.2182 45.2177C43.8682 45.5627 43.4226 45.7981 42.9374 45.8944V44.8561C43.1476 44.7813 43.3386 44.6618 43.4967 44.5061C43.6548 44.3504 43.7763 44.1623 43.8524 43.9551ZM45.9134 43.9551H46.9222C46.811 44.9593 46.3555 45.8961 45.6309 46.6104C44.9063 47.3247 43.9561 47.7738 42.9374 47.8833V46.8888C43.6876 46.7805 44.3823 46.4366 44.9185 45.9081C45.4546 45.3796 45.8035 44.6947 45.9134 43.9551ZM39.911 49.3024V50.4152C39.911 50.5471 39.9642 50.6736 40.0587 50.7668C40.1533 50.8601 40.2816 50.9125 40.4154 50.9125H40.9198V49.6425C40.5748 49.5562 40.2374 49.4425 39.911 49.3024Z" fill="#2F2161"/>
</svg>
