<svg width="16" height="16" viewBox="0 0 16 16" fill="none" xmlns="http://www.w3.org/2000/svg">
<g id="Search" clip-path="url(#clip0_2694_9189)">
<path id="Vector" d="M10.4623 9.48046L10.4593 9.47811L10.4624 9.4812L15.0999 14.1187C15.1134 14.1322 15.1242 14.1483 15.1315 14.166C15.1389 14.1837 15.1426 14.2027 15.1426 14.2219C15.1426 14.241 15.1389 14.26 15.1315 14.2777C15.1242 14.2954 15.1134 14.3115 15.0999 14.3251L14.3213 15.1018C14.3078 15.1154 14.2917 15.1261 14.274 15.1335C14.2563 15.1408 14.2373 15.1446 14.2181 15.1446C14.199 15.1446 14.18 15.1408 14.1623 15.1335C14.1446 15.1261 14.1285 15.1154 14.115 15.1018L9.47746 10.4661L9.48014 10.4634L9.47672 10.4661C8.54646 11.1839 7.41087 11.5731 6.21456 11.5731C4.78257 11.5731 3.43807 11.016 2.42746 10.0036C1.41685 8.99301 0.85798 7.64673 0.85798 6.21652C0.85798 4.78452 1.41506 3.44002 2.42746 2.42941C3.43807 1.4188 4.78436 0.859933 6.21456 0.859933C7.64477 0.859933 8.99106 1.41702 10.0017 2.42941C11.0123 3.44181 11.5711 4.78452 11.5711 6.21652C11.5711 7.41282 11.1819 8.5502 10.4623 9.48046ZM6.21456 10.2171C7.28257 10.2171 8.28628 9.80095 9.04353 9.04548C9.79899 8.29002 10.2151 7.28452 10.2151 6.21652C10.2151 5.14851 9.79899 4.1448 9.04353 3.38755C8.28807 2.6303 7.28257 2.21596 6.21456 2.21596C5.14656 2.21596 4.14285 2.63209 3.3856 3.38755C2.63014 4.14301 2.21401 5.14851 2.21401 6.21652C2.21401 7.28452 2.63014 8.28824 3.3856 9.04548C4.14285 9.80095 5.14656 10.2171 6.21456 10.2171Z" fill="black" fill-opacity="0.85" stroke="#464646" stroke-width="0.00111607"/>
</g>
<defs>
<clipPath id="clip0_2694_9189">
<rect width="16" height="16" fill="white"/>
</clipPath>
</defs>
</svg>
